<svg width="400" height="400" viewBox="0 0 400 400" fill="none" xmlns="http://www.w3.org/2000/svg">
<g clip-path="url(#clip0_2716_2475)">
<path d="M394.174 197.933V198.881C394.174 200.547 394.174 202.176 394.137 203.841V204.753C394.137 206.339 394.057 207.845 393.977 209.351C393.139 227.88 389.782 245.814 383.999 262.634C383.919 263.068 383.759 263.466 383.606 263.901C382.368 267.63 381.049 271.163 379.571 274.733C350.438 344.835 281 394.193 200.026 394.193C173.406 394.193 148.024 388.879 124.958 379.234C123.319 378.561 121.644 377.844 120.013 377.091C72.8757 355.906 35.848 316.503 17.8075 268.064C17.3269 266.674 16.8097 265.327 16.4092 263.894C16.2926 263.459 16.0887 263.061 15.9722 262.627C9.78147 244.453 6.23456 224.976 5.87768 204.739V203.827C5.83398 202.161 5.83398 200.532 5.83398 198.867V197.955C5.83398 197.318 5.83398 196.68 5.87768 196.13V194.776C5.92138 193.27 5.99421 191.728 6.03791 190.178C6.15444 187.514 6.31467 184.864 6.5186 182.243C6.59872 181.924 6.59872 181.49 6.63513 181.128C6.91918 178.63 7.15224 176.088 7.5164 173.59C7.5601 173.076 7.59652 172.599 7.67663 172.244C7.96068 170.224 8.28114 168.233 8.59431 166.249C9.075 163.628 9.51199 161.05 10.0728 158.552C10.6336 156.011 11.1944 153.592 11.8717 151.094C11.9519 150.812 11.9883 150.501 12.0684 150.218C12.5054 148.553 12.9424 146.88 13.4595 145.215C13.8601 143.745 14.297 142.362 14.7413 140.936C16.3728 135.817 18.1353 130.814 20.1673 125.934C20.211 125.854 20.2838 125.659 20.2838 125.579C20.9248 124.029 21.5657 122.523 22.243 121.097C41.4269 77.6469 76.4664 42.4872 120.005 23.0103C120.959 22.4963 121.957 22.0618 122.919 21.6636C146.589 11.469 172.641 5.79248 200.026 5.79248C276.769 5.79248 343.133 50.1476 374.706 114.458C376.497 118.107 378.136 121.799 379.651 125.608C379.695 125.687 379.767 125.89 379.811 125.963C386.912 143.224 391.588 161.752 393.3 181.07C393.576 183.843 393.78 186.667 393.941 189.396C394.021 191.264 394.057 192.966 394.137 194.791V196.145C394.174 196.738 394.174 197.296 394.174 197.926V197.933Z" fill="#45A4FF"/>
<path d="M200.018 400C173.172 400 147.157 394.816 122.693 384.585C121.01 383.897 119.262 383.144 117.558 382.362C69.1684 360.612 30.8006 319.681 12.3304 270.091L11.9007 268.875C11.5002 267.753 11.1069 266.63 10.7864 265.465C10.6262 265.045 10.5024 264.705 10.4004 264.379C3.88922 245.199 0.400575 225.179 0.0436991 204.862V203.848C0 202.277 0 200.597 0 198.889V198.012C0 197.281 0 196.586 0.0436991 195.963L0.203929 190.048C0.327743 187.224 0.495257 184.502 0.699186 181.823L1.06335 178.427C1.25999 176.61 1.45664 174.778 1.71155 172.975C1.76253 172.367 1.82808 171.802 1.91548 171.331C2.19952 169.318 2.5127 167.335 2.83316 165.365L3.10992 163.83C3.5105 161.622 3.90379 159.45 4.36991 157.328C4.94528 154.707 5.52794 152.202 6.23441 149.61C6.30724 149.241 6.38007 148.915 6.46747 148.611C6.88261 147.011 7.34145 145.266 7.88769 143.535C8.20815 142.362 8.60873 141.052 9.02387 139.719L9.16225 139.263C10.9685 133.608 12.6509 128.917 14.4498 124.536V124.464L14.8868 123.407C15.5642 121.763 16.2415 120.17 16.9625 118.657C36.7364 73.8528 72.4313 37.998 117.427 17.8116C118.497 17.2468 119.597 16.7617 120.661 16.32C145.788 5.50276 172.51 0 200.018 0C277.103 0 346.046 42.8853 379.935 111.916C381.792 115.696 383.453 119.439 385.018 123.349L385.201 123.769C392.695 141.978 397.371 161.086 399.104 180.563C399.381 183.351 399.592 186.254 399.752 189.063L399.847 191.699C399.876 192.64 399.913 193.574 399.956 194.537V195.971C399.993 196.615 400 197.238 400 197.933V198.881C400 200.59 400 202.263 399.964 203.971V204.761C399.964 206.375 399.891 207.91 399.811 209.438C398.944 228.596 395.521 246.958 389.621 264.205C389.498 264.726 389.323 265.233 389.133 265.754C387.866 269.57 386.497 273.234 384.96 276.948C353.897 351.699 281.306 400 200.025 400H200.018ZM12.294 182.974C12.1047 185.443 11.959 187.948 11.8497 190.461C11.8352 191.17 11.7988 191.981 11.7696 192.792L11.6968 194.964V196.376L11.6822 196.586C11.6531 197.013 11.6604 197.498 11.6604 197.984V198.896C11.6604 200.51 11.6604 202.096 11.6968 203.718V204.775C12.0391 223.832 15.3311 242.722 21.4854 260.802L21.5874 261.142C21.7767 261.62 21.9151 262.004 22.0244 262.409C22.272 263.278 22.5852 264.154 22.8911 265.03L23.3062 266.218C40.6475 312.788 76.7866 351.337 122.401 371.842C124.011 372.58 125.613 373.261 127.179 373.905C150.238 383.542 174.731 388.422 200.018 388.422C276.565 388.422 344.925 342.938 374.181 272.539C375.609 269.092 376.883 265.675 378.07 262.105L378.485 260.78C384.093 244.489 387.342 227.105 388.158 209.112C388.238 207.519 388.31 206.18 388.31 204.775V203.863C388.347 202.111 388.347 200.525 388.347 198.903V197.955C388.347 197.448 388.347 197.006 388.318 196.528L388.303 194.819C388.267 194.066 388.23 193.096 388.194 192.111L388.107 189.664C387.954 187.101 387.764 184.364 387.495 181.671C385.863 163.338 381.486 145.41 374.465 128.316L374.225 127.765C372.761 124.087 371.202 120.576 369.462 117.028C337.547 51.9794 272.617 11.5848 200.018 11.5848C174.105 11.5848 148.941 16.7617 125.227 26.978C124.382 27.3328 123.559 27.6803 122.78 28.1003L122.394 28.2885C79.9476 47.2803 46.2701 81.0716 27.5596 123.45C26.9114 124.811 26.3579 126.115 25.8043 127.447C25.7024 127.78 25.5858 128.07 25.4766 128.308C23.7068 132.566 22.0535 137.149 20.2691 142.717L20.138 143.13C19.7666 144.332 19.3951 145.519 19.0601 146.764C18.5139 148.531 18.106 150.102 17.6909 151.673C17.5889 152.13 17.5306 152.405 17.4578 152.658C16.8096 155.04 16.2706 157.372 15.7317 159.819C15.2947 161.803 14.9305 163.823 14.5591 165.872L14.2969 167.306C14.0056 169.13 13.6924 171.078 13.4156 173.062L13.3355 173.503C13.3282 173.598 13.3137 173.829 13.2918 174.075L13.2481 174.438C13.0005 176.168 12.8111 177.92 12.629 179.658L12.396 181.801C12.3669 182.221 12.3304 182.612 12.2795 182.974H12.294Z" fill="url(#paint0_linear_2716_2475)"/>
<path d="M394.173 197.933V198.881C394.173 200.547 394.173 202.176 394.137 203.841V204.753C394.137 206.339 394.057 207.845 393.976 209.351C393.139 227.88 389.781 245.814 383.998 262.634H15.9644C9.77366 244.46 6.22675 224.983 5.86987 204.746V203.834C5.82617 202.169 5.82617 200.54 5.82617 198.874V197.962C5.82617 197.325 5.82617 196.688 5.86987 196.137V194.783C5.91357 193.277 5.9864 191.735 6.0301 190.186C6.14663 187.521 6.30686 184.871 6.51079 182.25C6.59091 181.932 6.59091 181.497 6.62732 181.135C6.91137 178.637 7.14443 176.096 7.50859 173.598C7.55229 173.084 7.5887 172.606 7.66882 172.251C7.95286 170.231 8.27332 168.24 8.5865 166.256C9.06719 163.635 9.50418 161.057 10.065 158.559C10.6258 156.018 11.1866 153.6 11.8639 151.102C11.9441 150.819 11.9805 150.508 12.0606 150.225C12.4976 148.56 12.9346 146.888 13.4517 145.222C13.8522 143.752 14.2892 142.37 14.7335 140.943C16.3649 135.824 18.1275 130.821 20.1595 125.941H379.811C386.912 143.202 391.588 161.731 393.299 181.048C393.576 183.821 393.78 186.645 393.94 189.375C394.02 191.243 394.056 192.944 394.137 194.769V196.123C394.173 196.717 394.173 197.274 394.173 197.904V197.933Z" fill="white"/>
<path d="M226.834 200.474C226.718 200.952 226.558 201.35 226.397 201.864L262.515 218.489L225.56 205.275L225.203 205.079C225.043 205.47 224.883 205.868 224.759 206.23L256.608 228.966L222.887 209.127C222.567 209.561 222.333 209.88 222.093 210.278L248.589 239.044L219.617 212.74C219.457 212.979 219.173 213.131 219.02 213.377L239.813 246.502L216.186 215.44C215.742 215.716 215.349 215.954 214.948 216.193L228.517 252.772L211.838 217.584C211.562 217.663 211.197 217.822 210.804 217.938V218.018L217.235 257.022L207.417 219.133L207.381 218.735C206.9 218.851 206.383 218.974 205.983 218.974L204.227 258.449L202.509 219.444V219.046C202.232 219.126 201.911 219.126 201.671 219.046L192.654 257.493L198.161 218.814L198.241 218.532C197.76 218.496 197.287 218.293 196.806 218.213L180.084 254.003L193.412 217.222L193.492 217.026L192.574 216.592L169.385 248.566L189.421 214.926L189.501 214.767C189.1 214.528 188.78 214.173 188.379 213.891L159.246 240.435L185.75 211.632L185.83 211.552C185.67 211.357 185.43 211.074 185.269 210.879L151.708 231.587L183.07 208.062C182.829 207.628 182.633 207.273 182.356 206.875L145.401 220.205L180.958 203.588C180.761 203.465 180.674 203.269 180.674 203.074L141.883 209.46L179.72 199.779C179.639 199.222 179.603 198.744 179.603 198.273L140.332 196.528L179.319 194.783C179.319 194.429 179.319 194.067 179.399 193.748L141.206 184.98L179.836 190.251C179.96 189.816 180.076 189.338 180.28 188.904L144.724 172.475L181.438 185.61C181.518 185.371 181.635 185.052 181.839 184.857L149.713 161.89L183.514 181.765C183.835 181.41 184.068 180.968 184.468 180.577L157.812 151.616L186.748 177.956C187.025 177.718 187.265 177.479 187.505 177.24L166.675 144.071L190.302 175.176C190.703 174.937 191.22 174.626 191.7 174.387L178.132 137.605L194.81 172.874C195.211 172.794 195.648 172.635 196.092 172.475L189.748 134.115L199.442 171.643C199.923 171.607 200.484 171.527 201.001 171.527L202.756 132.566L204.475 171.447C204.832 171.447 205.233 171.447 205.553 171.527L214.337 133.522L208.911 172.005C209.391 172.084 209.988 172.244 210.425 172.403L226.907 137.055L213.615 173.598C213.936 173.714 214.176 173.952 214.409 174.076L237.555 141.942L217.519 175.668L217.403 175.828C217.76 176.146 218.197 176.465 218.597 176.704L247.89 150.037L221.27 178.919L221.073 179.158C221.27 179.397 221.554 179.557 221.707 179.796L255.508 158.965L224.096 182.453L223.776 182.692C224.016 183.047 224.256 183.488 224.453 183.879H224.613L261.969 170.274L226.368 186.891L225.931 187.05C226.011 187.289 226.172 187.608 226.252 187.927L265.363 181.54L227.213 191.301H227.053C227.133 191.742 227.213 192.256 227.213 192.734L266.841 194.443L227.65 196.188H227.293C227.373 196.543 227.293 196.782 227.293 197.1L266.04 206.028L227.053 200.59L226.856 200.511L226.834 200.474Z" fill="#F0E838"/>
<path d="M141.191 184.842V185.081L141.271 184.922V184.842H141.191ZM144.665 172.584H144.709V172.461L144.665 172.584ZM169.406 248.558L169.29 248.515L169.45 248.631L169.406 248.551V248.558ZM178.11 137.591L177.949 137.634V137.714L178.11 137.634L178.306 137.555L178.11 137.591ZM179.428 193.647L144.032 185.479L142.837 185.284H142.633L141.191 185.088L179.304 193.813L179.224 194.646L140.354 196.434L141.475 196.478L142.589 196.514L179.304 194.848H179.428V194.769L179.464 193.733L179.508 193.654H179.428V193.647ZM179.668 198.251L179.624 198.208H179.588L142.589 196.499L141.475 196.543L140.354 196.622L179.464 198.331L179.624 199.714L141.796 209.351L142.393 209.235H142.473L143.631 209.04L179.705 199.837H179.821V199.794L179.661 198.244L179.668 198.251ZM180.345 188.766L146.945 173.33L145.714 172.939L145.634 172.859L144.716 172.584L180.149 188.926C179.989 189.281 179.828 189.715 179.712 190.157L141.315 184.842L142.437 185.081L142.597 185.161L144.039 185.479L179.799 190.439H179.916L179.959 190.323L180.396 188.933L180.44 188.817L180.36 188.774L180.345 188.766ZM180.746 203.052L180.702 202.929L143.631 209.04L143.034 209.199H142.997L141.876 209.518L180.63 203.124L180.746 203.363L180.863 203.559L145.386 220.176L145.663 220.06L145.86 219.98L146.537 219.698L180.899 203.631H180.943L180.979 203.552L180.739 203.037L180.746 203.052ZM181.941 184.683L152.487 163.693L151.169 162.94L151.125 162.896L149.61 161.984L181.576 184.878L181.336 185.392L144.738 172.302V172.381L145.736 172.859L145.896 172.939L146.938 173.33L181.336 185.747H181.46L181.54 185.631L181.941 184.878V184.683ZM182.378 206.817V206.781H182.297L146.537 219.712L146.093 219.951L145.415 220.27L182.334 206.94L182.975 208.048L151.65 231.536L152.291 231.145L153.369 230.472L183.142 208.091L183.186 208.048V207.968L182.385 206.817H182.378ZM184.577 180.44L160.637 154.454L159.443 153.339L157.651 151.717L184.227 180.563L183.514 181.598L149.793 161.76L151.067 162.672L152.509 163.707L183.434 181.953L183.55 181.997L183.63 181.917L184.584 180.73L184.664 180.57L184.584 180.447L184.577 180.44ZM185.895 211.502L185.334 210.785L185.254 210.705L185.174 210.749L153.369 230.472L152.728 230.949L152.531 231.065L151.73 231.659L185.254 210.987L185.699 211.502L185.655 211.545L159.195 240.311L160.076 239.558L160.2 239.363L160.637 239.008L185.822 211.719L185.866 211.639L185.946 211.559L185.91 211.516L185.895 211.502ZM187.643 177.146L169.006 147.351L167.767 145.765L167.724 145.722L166.529 144.136L187.206 177.261L186.726 177.696L157.913 151.471L159.028 152.702L160.623 154.447L186.602 178.051L186.726 178.21L186.842 178.051L187.636 177.377L187.716 177.261L187.636 177.146H187.643ZM189.522 214.637L188.444 213.804L188.401 213.761L188.284 213.884L160.623 238.994L159.829 239.906L159.268 240.5L159.224 240.42L159.181 240.304L159.144 240.384L159.261 240.543L188.393 214.086L189.348 214.76L189.304 214.839L169.268 248.522L169.865 247.689L170.025 247.451L170.906 246.263L189.464 214.926L189.581 214.767L189.624 214.687L189.5 214.644L189.522 214.637ZM189.726 134.057H189.886V134.021L189.726 134.057ZM191.838 174.329L179.785 141.522L178.823 139.502V139.459L178.029 137.837L191.438 174.336L190.36 174.93L166.813 143.941L167.811 145.606L167.855 145.649L169.013 147.358L190.163 175.248L190.28 175.444L190.396 175.328L191.715 174.532L191.875 174.416L191.838 174.336V174.329ZM193.514 216.975L192.596 216.425L192.479 216.382L192.436 216.461L170.928 246.256L170.331 247.248L169.77 248.24L192.596 216.736L193.353 217.091L193.273 217.135L179.909 253.909H179.952L180.433 252.917L180.477 252.758L181.234 251.136L193.528 217.214L193.608 217.098L193.732 216.975H193.535H193.514ZM196.23 172.425L190.564 138.069L190.171 136.396L190.09 136.121L189.53 134.101L195.8 172.309L194.919 172.627L178.313 137.562L179.151 139.705L179.195 139.785L179.792 141.53L194.599 172.953L194.679 173.069L194.795 173.026L196.114 172.627L196.274 172.591L196.23 172.432V172.425ZM198.262 218.409L196.784 218.09L196.66 218.047L196.623 218.206L181.219 251.136L180.782 252.323V252.36L180.185 254.032L196.827 218.402L198.066 218.641L197.985 218.757L192.479 257.435L192.916 255.69L193.273 254.061L198.306 218.793L198.35 218.597L198.43 218.481L198.269 218.402L198.262 218.409ZM202.494 132.551L200.738 171.31L199.58 171.433L189.886 134.057L190.083 135.563L190.163 135.723L190.557 138.069L199.216 171.708L199.26 171.824H199.457L200.935 171.708L201.132 171.628V171.512L202.727 136.997L202.486 132.551H202.494ZM202.654 219.003V218.843H201.54L201.459 219.003L193.28 254.068L193.084 255.618L193.047 255.813L192.807 257.479L201.787 219.191H202.304L204.023 258.434L204.22 253.866L202.661 218.995L202.654 219.003ZM205.363 171.31L204.686 171.266L202.894 132.544L202.734 136.99L204.293 171.426V171.585H204.453L205.451 171.701H205.647L205.684 171.541L213.426 138.09L213.783 135.708V135.672L214.103 133.493L205.363 171.302V171.31ZM214.11 133.428V133.507H214.314L214.11 133.428ZM216.74 255.306V255.111L216.463 253.641L207.483 218.728L207.439 218.532H207.322L205.968 218.771L205.808 218.814V218.974L204.213 253.887L204.329 256.19L204.409 258.456L206.128 219.14L207.242 218.901L217.024 257.073L216.74 255.328V255.306ZM210.236 172.142L209.114 171.824L214.504 133.536L213.987 135.679L213.943 135.875L213.426 138.09L208.677 171.976V172.099L208.837 172.135L210.316 172.577L210.512 172.613L210.556 172.454L225.203 140.994L225.844 139.372V139.329L226.681 136.91L210.243 172.142H210.236ZM226.441 201.821L226.557 201.423L226.397 201.864H226.441L234.343 205.514L261.801 218.17L262.041 218.293L262.522 218.489L226.448 201.821H226.441ZM211.751 217.815L228.349 252.808L227.752 251.179V251.143L227.271 249.956L211.947 217.54L211.904 217.381L211.787 217.46L210.746 217.736L210.622 217.815V218.054L216.448 253.641L216.893 255.306L216.929 255.386L217.33 257.008L210.942 218.003L211.743 217.808L211.751 217.815ZM214.351 173.771L213.834 173.489L227.038 137.069L226.281 138.742L226.244 138.901L225.203 141.001L213.426 173.496L213.382 173.656L213.542 173.779L214.3 174.257L214.416 174.336L214.533 174.22L235.05 145.736L236.208 143.796L236.324 143.68L237.358 141.892L214.336 173.793L214.351 173.771ZM216.142 215.592L239.405 246.256L238.851 245.307V245.264L238.21 244.228L216.259 215.39L216.222 215.274L216.142 215.31L214.904 216.027L214.824 216.143L214.861 216.186L227.278 249.948L228.072 251.57H228.116L228.633 252.722L215.101 216.222L216.142 215.585V215.592ZM239.769 246.451L239.725 246.574L239.849 246.415L239.769 246.451ZM218.575 176.429L217.614 175.792L217.694 175.748L237.722 142.065L236.244 144.129L236.164 144.209L235.05 145.715L217.41 175.473L217.213 175.668L217.089 175.828L217.213 175.944L218.444 176.82L218.604 176.936L218.684 176.776L244.984 152.89L246.659 151.109L247.737 149.921V149.878L218.568 176.421L218.575 176.429ZM219.616 212.856L248.509 239.037L247.715 238.204L247.635 238.161L246.958 237.372L219.66 212.653L219.624 212.609L219.5 212.689L218.946 213.283L218.903 213.362L218.946 213.406L238.218 244.228L239.099 245.38L239.856 246.415L219.143 213.362L219.624 212.848L219.616 212.856ZM247.832 150.008L247.992 150.167V150.124L247.832 150.008ZM221.729 179.564L221.248 179.129L247.708 150.406L246.229 151.797L244.998 152.904L220.935 178.97L220.855 179.129L221.532 179.846L221.692 179.962L221.772 179.919L253.097 160.558L254.139 159.761L254.182 159.725L255.377 158.849L221.729 179.557V179.564ZM222.887 209.243L256.571 229.038L255.894 228.56L255.814 228.48L255.493 228.242L222.887 209.076L222.85 209.033L222.806 209.112L222.45 209.67L222.049 210.263V210.307L246.95 237.365L247.628 238.038L247.824 238.154L222.166 210.263L222.879 209.228L222.887 209.243ZM224.605 183.734L223.965 182.742L255.537 159.015L254.496 159.689L253.097 160.565L223.688 182.547L223.608 182.627L223.688 182.75L224.365 183.937L224.445 183.973H224.605L259.608 171.281L260.883 170.644L261.924 170.129L224.613 183.742L224.605 183.734ZM225.283 205.152L225.567 205.311L262.041 218.286L248.589 213.485L225.567 205.195L225.283 205.115H225.203V205.072H225.159V205.115L224.678 206.187V206.267L255.486 228.249L256.083 228.647L224.758 206.187L225.275 205.152H225.283ZM226.361 187.818L226.04 187.065L262.034 170.325L260.803 170.803L260.723 170.882L259.608 171.273L225.887 186.949H225.807L225.851 187.065L226.171 187.941L226.215 188.021H226.295L263.651 181.91L264.772 181.591H264.889L265.326 181.468L226.375 187.818H226.361ZM265.311 181.512V181.591H265.355L265.311 181.512ZM265.624 205.912L265.464 205.868L265.304 205.825L264.911 205.745L227.038 200.547L226.798 200.467L227.038 200.583L266.025 205.977L265.624 205.897V205.912ZM266.025 205.912V205.992L266.069 205.912H266.025ZM266.826 194.479L266.469 194.443L266.826 194.4L227.278 192.611L227.118 191.344H227.235L265.304 181.584L264.19 181.823H264.109L263.629 181.902L227.191 191.149H226.951V191.264L227.147 192.698V192.741H227.191L265.704 194.45L227.592 196.159H227.235V197.151H227.278L264.911 205.76L265.304 205.84H265.464L227.351 197.035V196.246L266.819 194.501L266.826 194.479ZM265.668 205.868L266.025 205.912L265.464 205.832V205.876H265.661L265.668 205.868ZM169.45 248.638H169.53L169.77 248.247L169.45 248.638ZM225.159 205.079V205.123H225.203V205.079H225.159ZM239.405 246.256L239.645 246.574H239.725L239.405 246.256Z" fill="#57382A"/>
<path d="M207.244 188.173C210.477 184.835 216.785 184.835 219.895 188.448L219.851 188.491C217.935 187.217 215.86 186.268 213.587 186.073C211.271 185.798 209.239 187.108 207.28 188.252L207.236 188.173H207.244Z" fill="#925236"/>
<path d="M217.774 188.651C216.616 187.499 215.058 186.942 213.47 186.906C213.47 186.906 213.426 186.862 213.39 186.906C213.193 186.906 213.033 186.906 212.829 186.949C212.749 186.906 212.633 186.949 212.589 186.993C211.271 187.152 209.996 187.782 209.115 188.933C209.872 188.26 210.914 187.702 211.948 187.463C212.742 187.268 213.543 187.145 214.3 187.268C215.458 187.384 216.493 187.825 217.41 188.738C217.41 188.738 217.49 188.738 217.534 188.658V188.897C217.49 188.817 217.41 188.781 217.41 188.738C216.412 189.375 215.298 189.773 214.22 189.925C213.579 190.005 212.989 190.084 212.385 189.968C212.385 190.012 212.341 189.968 212.341 189.968C211.147 189.925 210.105 189.57 209.107 188.933C211.46 191.156 215.371 190.997 217.767 188.933L217.927 188.774L217.767 188.658L217.774 188.651Z" fill="#925236"/>
<path d="M214.985 188.571C214.985 189.527 214.147 190.236 213.23 190.236C212.312 190.236 211.555 189.527 211.555 188.571C211.555 187.615 212.276 186.862 213.23 186.862C214.184 186.862 214.985 187.579 214.985 188.571Z" fill="#925236"/>
<path d="M208.045 189.961C209.363 191.351 211.395 191.467 213.114 191.395C214.833 191.351 217.025 191.59 218.183 190.084C217.142 191.713 214.869 191.713 213.114 191.952C211.279 191.873 209.247 191.438 208.045 189.968V189.961Z" fill="#925236"/>
<path d="M200.704 188.252C198.745 187.101 196.669 185.798 194.361 186.073C192.088 186.268 190.049 187.224 188.134 188.491L188.09 188.448C191.163 184.835 197.507 184.835 200.741 188.173L200.704 188.252Z" fill="#925236"/>
<path d="M195.626 189.961C195.029 190.077 194.395 190.005 193.791 189.918C193.747 189.961 193.747 189.918 193.747 189.918C192.633 189.722 191.518 189.281 190.593 188.73L190.433 188.89V188.651C190.513 188.73 190.55 188.73 190.593 188.73C191.431 187.818 192.473 187.384 193.623 187.26C193.623 187.26 193.623 187.217 193.703 187.26C194.417 187.145 195.182 187.26 196.019 187.456C197.017 187.695 198.051 188.245 198.853 188.926C197.935 187.775 196.74 187.145 195.422 186.985C195.342 186.942 195.262 186.942 195.182 186.942C195.022 186.898 194.745 186.898 194.541 186.898C194.497 186.855 194.497 186.898 194.497 186.898C192.939 186.898 191.344 187.492 190.149 188.643L190.025 188.759L190.186 188.919C192.582 190.982 196.493 191.098 198.845 188.919C197.891 189.556 196.813 189.91 195.612 189.954L195.626 189.961Z" fill="#925236"/>
<path d="M193.041 188.571C193.041 189.527 193.798 190.236 194.716 190.236C195.634 190.236 196.435 189.527 196.435 188.571C196.435 187.615 195.678 186.862 194.716 186.862C193.755 186.862 193.041 187.579 193.041 188.571Z" fill="#925236"/>
<path d="M199.94 189.961C198.745 191.431 196.669 191.865 194.834 191.945C193.115 191.706 190.843 191.706 189.809 190.077C190.967 191.583 193.159 191.351 194.834 191.387C196.589 191.467 198.629 191.344 199.94 189.954V189.961Z" fill="#925236"/>
<path d="M220.135 186.269C217.418 182.656 211.672 181.664 207.841 183.966C205.962 185.277 205.124 187.579 205.204 189.838C205.285 191.981 205.488 194.639 207.52 195.906L207.477 195.949C205.285 194.834 204.68 192.097 204.644 189.838C204.607 187.536 205.525 184.922 207.637 183.684C211.628 181.584 217.739 181.939 220.208 186.261H220.128L220.135 186.269Z" fill="#925236"/>
<path d="M198.423 196.861C197.702 198.252 198.78 199.403 200.142 199.005C201.417 198.049 202.735 199.714 204.053 199.323C204.73 199.244 205.131 198.881 205.808 198.606C206.762 198.411 207.323 199.164 207.884 199.041C208.918 199.482 210.353 197.817 209.275 196.825V196.782C210.717 197.614 209.435 200.033 207.76 199.598C206.282 198.722 205.648 199.403 203.966 199.642C202.531 199.801 201.453 198.295 200.215 199.403C198.62 200.235 197.302 197.933 198.336 196.825L198.416 196.861H198.423Z" fill="#925236"/>
<path d="M209.96 204.442C208.328 202.856 206.333 201.937 204.133 203.088C201.897 202.335 199.705 202.494 198.227 204.362C198.948 203.609 199.669 202.617 200.863 202.458C201.941 202.103 203.259 202.458 204.097 202.538C205.014 202.342 206.289 201.901 207.367 202.415C208.401 202.893 209.202 203.646 209.96 204.442Z" fill="#925236"/>
<path d="M199.707 204.761C201.098 204.761 202.62 204.601 204.055 205.079C205.052 204.638 206.851 204.638 208.162 204.884C207.405 204.84 206.72 204.927 206.006 205C205.249 205.079 204.885 205.398 203.851 205.637C202.576 205 201.098 205 199.699 204.768L199.707 204.761Z" fill="#925236"/>
<path d="M209.48 205.152C208.526 205.593 207.528 205.984 206.727 206.658C206.173 207.454 204.971 208.164 203.894 208.128C201.301 208.367 200.383 205.463 198.264 205.188C200.5 205.383 201.614 208.041 203.894 207.527C204.971 207.606 205.809 207.288 206.567 206.455C207.448 205.818 208.482 205.463 209.48 205.145V205.152Z" fill="#925236"/>
<path d="M200.143 211.19C200.9 209.8 202.175 208.374 204.054 208.49C205.685 208.49 207.207 209.959 207.608 211.465C206.333 208.251 201.745 208.251 200.143 211.19Z" fill="#925236"/>
<path d="M200.259 196.029C201.497 194.009 202.291 191.75 202.575 189.527C202.896 187.26 202.379 184.524 200.099 183.575C195.831 181.512 190.602 182.663 187.368 186.116H187.324C190.121 182.149 196.028 180.759 200.252 183.3C202.532 184.451 203.121 187.268 203.005 189.534C202.888 191.988 201.65 194.132 200.332 196.036H200.252L200.259 196.029Z" fill="#925236"/>
</g>
<defs>
<linearGradient id="paint0_linear_2716_2475" x1="199.996" y1="400" x2="199.996" y2="0" gradientUnits="userSpaceOnUse">
<stop stop-color="white" stop-opacity="0.2"/>
<stop offset="0.06" stop-color="white" stop-opacity="0.0961"/>
<stop offset="0.18" stop-color="white" stop-opacity="0.2401"/>
<stop offset="0.31" stop-color="white" stop-opacity="0.4225"/>
<stop offset="0.43" stop-color="white" stop-opacity="0.6084"/>
<stop offset="0.56" stop-color="white" stop-opacity="0.7569"/>
<stop offset="0.69" stop-color="white" stop-opacity="0.8836"/>
<stop offset="0.84" stop-color="white" stop-opacity="0.9801"/>
<stop offset="1" stop-color="white"/>
</linearGradient>
<clipPath id="clip0_2716_2475">
<rect width="400" height="400" fill="white"/>
</clipPath>
</defs>
</svg>
