<svg width="400" height="403" viewBox="0 0 400 403" fill="none" xmlns="http://www.w3.org/2000/svg">
<g clip-path="url(#clip0_2716_2535)">
<path d="M394.214 198.983V199.982C394.214 201.661 394.214 203.252 394.091 204.975V205.893C394.091 207.449 394.091 208.969 393.975 210.524C393.179 229.2 389.749 247.195 384.033 264.076C383.917 264.554 383.758 264.952 383.599 265.437C383.121 266.833 382.644 268.266 382.123 269.669C381.32 271.905 380.444 274.141 379.569 276.29C350.437 346.767 281.032 396.454 200.021 396.454C173.4 396.454 148.061 391.107 124.957 381.411C123.278 380.695 121.643 379.971 120.007 379.255C72.9533 357.946 35.8845 318.352 17.882 269.669C17.8289 269.641 17.8024 269.614 17.8024 269.59C17.3248 268.193 16.8038 266.833 16.4059 265.437C16.2467 264.959 16.1309 264.561 15.9717 264.076C9.78515 245.835 6.2324 226.24 5.87061 205.893V204.975C5.79102 203.26 5.79102 201.668 5.79102 199.982V198.983C5.79102 198.426 5.79102 197.789 5.87061 197.232V195.872C5.9502 194.352 5.99362 192.797 6.07321 191.284C6.1528 188.687 6.34817 186.133 6.51459 183.622V183.26C6.59418 182.898 6.59418 182.5 6.63036 182.182C6.86914 179.628 7.15134 177.073 7.50589 174.563C7.54207 174.042 7.62166 173.564 7.70849 173.202C7.94727 171.169 8.26565 169.172 8.62743 167.175C9.06881 164.505 9.54637 161.951 10.0673 159.433C10.6245 156.878 11.2251 154.404 11.8618 151.929C11.9052 151.604 12.021 151.285 12.0644 151.054C12.4986 149.339 12.9834 147.66 13.4609 146.025C13.8951 144.549 14.3003 143.109 14.7344 141.72C15.6534 138.767 16.6519 135.808 17.6866 133.022C18.4825 130.902 19.2857 128.753 20.1612 126.633C20.2046 126.517 20.2408 126.394 20.3204 126.271C20.921 124.752 21.5577 123.239 22.2379 121.763C41.4705 77.9797 76.4699 42.662 120.007 23.0676C120.963 22.5466 122.005 22.1124 122.96 21.7072C146.584 11.4542 172.64 5.78857 200.021 5.78857C276.727 5.78857 343.166 50.3247 374.699 115.012C376.493 118.688 378.129 122.436 379.648 126.264C379.692 126.387 379.764 126.503 379.807 126.626C380.647 128.746 381.486 130.859 382.246 133.015C384.598 139.281 386.558 145.706 388.23 152.291C388.505 153.485 388.823 154.643 389.069 155.88C389.909 159.433 390.661 162.942 391.262 166.538C391.421 167.732 391.66 168.933 391.855 170.171C392.181 171.965 392.376 173.839 392.615 175.677C392.933 177.833 393.092 179.91 393.331 182.023C393.57 184.816 393.765 187.688 393.924 190.438C394.047 192.276 394.084 194.027 394.084 195.872V197.232C394.207 197.869 394.207 198.39 394.207 198.983H394.214Z" fill="#00B047"/>
<path d="M200.02 402.236C173.226 402.236 147.213 397.019 122.713 386.737C121.208 386.093 119.768 385.463 118.343 384.834L117.692 384.544C69.8921 362.895 31.9768 322.628 13.2723 273.816L12.1001 273.229L11.9265 270.306C11.5358 269.214 11.1595 268.128 10.8411 267.021L10.4793 265.907C3.94544 246.645 0.443334 226.479 0.0815465 205.988V204.967C0.00195312 203.426 0.00195312 201.747 0.00195312 199.975V199.135C0.00195312 198.354 0.0164246 197.594 0.0815465 196.907V195.554C0.132197 194.779 0.16114 194.005 0.190083 193.224L0.284148 190.981C0.34927 188.976 0.486749 186.885 0.624228 184.816L0.848537 182.03C0.834065 181.885 0.848537 181.654 0.884716 181.437C1.13073 178.759 1.42016 176.234 1.75301 173.911C1.80366 173.304 1.89772 172.732 1.99179 172.262C2.2161 170.395 2.51276 168.448 2.9252 166.147C3.36658 163.477 3.85861 160.851 4.39406 158.261C4.95845 155.656 5.55902 153.181 6.18853 150.714C6.24641 150.424 6.31153 150.135 6.38389 149.874C6.89763 147.841 7.3969 146.104 7.89617 144.404L8.33031 142.928C8.61974 141.929 8.90194 140.945 9.20584 139.99C10.1971 136.814 11.2246 133.782 12.2593 131.003L12.5053 130.352C13.2289 128.435 13.9597 126.496 14.7484 124.578C14.828 124.361 14.9221 124.115 15.0596 123.847C15.6674 122.335 16.3041 120.823 16.977 119.354C36.7958 74.2172 72.4898 38.1614 117.446 17.8723C118.632 17.2428 119.833 16.7435 120.731 16.3673C145.73 5.52088 172.43 0 200.02 0C275.988 0 346.595 44.1526 379.901 112.48C381.681 116.112 383.345 119.897 384.988 124.035C385.104 124.274 385.198 124.513 385.277 124.744C386.051 126.691 386.912 128.869 387.701 131.097C389.995 137.197 392.014 143.702 393.837 150.873L394.134 152.103C394.351 152.978 394.568 153.861 394.749 154.78C395.697 158.796 396.42 162.298 396.97 165.59C397.086 166.437 397.202 167.095 397.317 167.761L397.571 169.273C397.802 170.561 397.99 172.016 398.171 173.47L398.359 174.932C398.569 176.364 398.728 177.848 398.873 179.331L399.09 181.379C399.351 184.382 399.553 187.312 399.712 190.112C399.828 191.849 399.879 193.643 399.879 195.879V196.769C400.002 197.652 400.002 198.383 400.002 198.983V199.982C400.002 201.632 400.002 203.332 399.879 205.17V205.886C399.879 207.594 399.879 209.251 399.741 210.959C398.953 229.598 395.53 248.085 389.582 265.733C389.467 266.153 389.336 266.544 389.192 266.949L388.808 268.07C388.403 269.272 387.983 270.487 387.542 271.674C386.739 273.917 385.827 276.232 384.923 278.461C353.838 353.662 281.263 402.236 200.013 402.236H200.02ZM22.5052 265.502L23.3083 267.651C40.6452 314.553 76.7589 353.308 122.388 373.973L122.974 374.226C124.377 374.841 125.788 375.456 127.228 376.079C150.26 385.746 174.76 390.659 200.013 390.659C276.56 390.659 344.931 344.892 374.206 274.069C375.039 272.021 375.885 269.865 376.659 267.709C377.086 266.551 377.47 265.444 377.839 264.344L378.258 263.121C378.309 262.976 378.367 262.839 378.41 262.68L378.548 262.217C384.185 245.553 387.426 228.071 388.186 210.271C388.302 208.672 388.302 207.297 388.302 205.886L388.316 204.555C388.432 202.978 388.425 201.516 388.425 199.982V198.983C388.425 198.759 388.454 198.564 388.403 198.325L388.302 197.225V195.865C388.302 194.157 388.273 192.529 388.157 190.821C387.998 188.072 387.802 185.25 387.571 182.508L387.354 180.489C387.224 179.179 387.086 177.869 386.891 176.524L386.681 174.888C386.529 173.651 386.377 172.406 386.16 171.198L385.914 169.744C385.769 168.926 385.632 168.116 385.523 167.305C385.046 164.462 384.373 161.191 383.432 157.211C383.244 156.263 383.07 155.569 382.897 154.874L382.593 153.608C380.907 146.965 379.004 140.859 376.826 135.055C376.066 132.899 375.27 130.888 374.474 128.883C374.387 128.71 374.315 128.529 374.25 128.355C372.716 124.477 371.16 120.946 369.503 117.567C338.114 53.1756 271.596 11.5772 200.02 11.5772C174.029 11.5772 148.878 16.7725 125.267 27.0183C124.406 27.3801 123.553 27.7274 122.764 28.1543L122.38 28.3425C79.9499 47.4376 46.2674 81.4385 27.5268 124.086C26.8539 125.555 26.2533 126.98 25.6889 128.399L25.4356 128.985C24.6976 130.786 24.0102 132.61 23.33 134.411L23.0913 135.048C22.1361 137.617 21.1738 140.439 20.2476 143.427C19.9654 144.324 19.7049 145.222 19.4372 146.141L18.9958 147.653C18.5544 149.172 18.0986 150.743 17.6861 152.356C17.65 152.515 17.6066 152.682 17.5631 152.855L17.4546 153.369C16.8323 155.771 16.2535 158.174 15.7108 160.656C15.2188 163.036 14.7557 165.511 14.3288 168.108C13.9742 170.069 13.6775 171.951 13.4532 173.868L13.3519 174.461C13.323 174.592 13.294 174.773 13.2796 174.961L13.2362 175.373C12.8888 177.79 12.6211 180.25 12.3896 182.71C12.3606 183.079 12.3317 183.398 12.2955 183.68L12.1797 185.59C12.0495 187.522 11.9192 189.476 11.8541 191.458L11.7601 193.68C11.7311 194.461 11.7022 195.242 11.6588 196.017L11.6009 198.021C11.5647 198.325 11.5792 198.672 11.5792 198.969V199.967C11.5792 201.559 11.5792 203.072 11.6515 204.692V205.872C11.9988 225.061 15.2911 244.048 21.4487 262.195L21.8974 263.577C22.1072 264.293 22.3098 264.908 22.5052 265.48V265.502Z" fill="url(#paint0_linear_2716_2535)"/>
<path d="M31.1738 202.732L199.268 96.4961L369.547 201.017L201.46 306.854L31.1738 202.732Z" fill="#FFD920"/>
<path d="M272.174 201.14C272.174 206.205 271.653 211.154 270.619 215.944C269.504 221.487 267.71 226.841 265.395 231.863C253.781 256.609 228.637 273.765 199.47 273.765C159.362 273.765 126.801 241.24 126.801 201.132C126.801 194.027 127.799 187.204 129.717 180.735C131.272 175.308 133.465 170.12 136.178 165.25C148.747 143.225 172.372 128.377 199.47 128.377C239.657 128.377 272.182 160.981 272.182 201.132L272.174 201.14Z" fill="#00216C"/>
<path d="M270.612 215.944C269.497 221.487 267.703 226.841 265.387 231.863C265.228 231.819 265.185 231.703 265.069 231.588C249.7 212.948 226.322 198.028 198.819 188.803C173.435 180.264 135.325 180.662 129.695 180.742C131.251 175.315 133.443 170.127 136.157 165.257C136.157 165.257 160.621 162.544 202.364 173.477C243.63 184.215 266.574 210.749 270.604 215.944H270.612Z" fill="white"/>
<path d="M141.598 169.288C139.044 169.324 137.249 171.357 137.329 174.396C137.372 177.348 139.203 179.186 141.721 179.143C144.239 179.1 146.07 177.269 146.07 173.991C145.91 171.162 144.232 169.201 141.598 169.281V169.288ZM141.793 178.152C139.796 178.188 138.682 176.357 138.646 174.36C138.566 172.24 139.565 170.33 141.554 170.286C143.631 170.243 144.666 172.204 144.709 174.114C144.753 176.27 143.674 178.065 141.793 178.144V178.152Z" fill="#00AF47"/>
<path d="M153.211 176.314C152.972 175.315 152.531 174.635 151.771 174.404V174.36C152.806 174.042 153.609 173.202 153.609 171.849C153.609 171.249 153.37 170.489 152.849 170.055C152.292 169.534 151.417 169.302 150.179 169.302C149.304 169.302 148.385 169.338 147.741 169.418L147.625 178.919H148.862L148.942 174.729H150.1C151.257 174.809 151.699 175.322 152.061 176.647C152.263 177.884 152.458 178.68 152.618 178.962L153.891 179.005C153.689 178.607 153.493 177.645 153.211 176.328V176.314ZM150.252 173.839H148.935L148.978 170.33C149.181 170.286 149.571 170.25 150.252 170.25C151.489 170.25 152.408 170.807 152.408 172.088C152.408 173.123 151.532 173.846 150.252 173.846V173.839Z" fill="#00AF47"/>
<path d="M162.11 170.851C161.307 170.048 160.113 169.613 158.318 169.49C157.32 169.411 156.401 169.49 155.648 169.534L155.207 178.991C155.808 179.107 156.567 179.15 157.399 179.194C159.317 179.309 160.757 178.911 161.792 178.072C162.631 177.233 163.224 175.916 163.268 174.404C163.383 172.848 162.949 171.726 162.11 170.851ZM157.718 178.231C157.233 178.188 156.755 178.152 156.437 178.072L156.799 170.569C157.197 170.489 157.638 170.489 158.318 170.489C160.952 170.605 162.11 172.124 162.03 174.36C161.915 176.994 160.352 178.347 157.725 178.231H157.718Z" fill="#00AF47"/>
<path d="M170.447 171.524L170.65 170.489L165.419 170.048L164.543 179.505L169.89 180.062L170.006 178.984L165.86 178.586L166.178 175.192L169.89 175.467L169.97 174.512L166.258 174.15L166.54 171.162L170.447 171.524Z" fill="#00AF47"/>
<path d="M180.026 171.726L177.711 176.039C177.074 177.233 176.633 178.195 176.235 179.114H176.155C176.112 178.079 175.953 177.037 175.757 175.843L174.759 170.974L173.167 170.735L171.17 180.113L172.364 180.315L173.167 176.285C173.442 174.888 173.76 173.289 173.963 172.131C174.079 173.289 174.281 174.57 174.52 175.923L175.439 180.713L176.358 180.793L178.71 176.444C179.31 175.207 179.947 174.129 180.424 173.05H180.468C180.265 174.165 180.15 175.843 179.99 177.124L179.708 181.314L180.866 181.516L181.582 171.98L180.026 171.741V171.726Z" fill="#00AF47"/>
<path d="M196.713 179.664L195.635 179.382C195.114 180.503 194.6 181.299 193.993 181.856C193.595 181.097 192.958 179.859 192.357 178.781V178.702C194.072 178.34 194.796 177.667 195.071 176.748C195.346 175.467 194.673 174.512 193.515 174.237C191.959 173.839 190.881 174.794 190.642 175.916C190.404 176.632 190.599 177.392 190.881 178.072V178.152C189.687 178.47 188.689 179.15 188.37 180.388C188.009 181.82 188.805 183.26 190.642 183.781C191.605 183.976 192.56 183.861 193.595 183.296C193.87 183.817 193.993 184.099 194.188 184.418L195.664 184.816C195.266 184.063 194.861 183.419 194.506 182.783C195.425 182.189 196.062 181.104 196.706 179.671L196.713 179.664ZM191.721 176.155C191.88 175.438 192.357 174.881 193.24 174.997C193.956 175.279 194.116 175.916 193.956 176.553C193.797 177.269 193.037 177.631 191.996 177.992C191.721 177.392 191.598 176.799 191.721 176.155ZM191.004 182.898C189.926 182.58 189.289 181.538 189.564 180.503C189.803 179.505 190.642 179.107 191.2 178.948C191.996 180.388 192.755 181.82 193.153 182.457C192.56 182.898 191.836 183.014 190.997 182.898H191.004Z" fill="#00AF47"/>
<path d="M209.839 180.062C209.521 179.382 208.725 178.904 207.567 178.47C206.605 178.152 205.852 177.992 205.288 177.869L202.256 186.849L203.45 187.204L204.644 183.615C204.882 183.81 205.237 183.89 205.599 184.013C206.677 184.331 207.835 184.331 208.674 183.969C209.275 183.615 209.752 183.014 210.034 182.254C210.316 181.415 210.237 180.699 209.832 180.062H209.839ZM208.84 181.936C208.442 183.13 207.321 183.535 205.924 183.13C205.526 182.971 205.244 182.891 204.926 182.652L206.163 179.143C206.402 179.143 206.757 179.223 207.321 179.382C208.602 179.867 209.238 180.699 208.84 181.936Z" fill="#00AF47"/>
<path d="M217.261 182.775C216.863 182.095 216.226 181.538 214.945 181.097C214.193 180.778 213.354 180.503 212.717 180.38L209.359 189.28L210.517 189.758L211.993 185.85L213.028 186.248C214.106 186.646 214.388 187.283 214.186 188.6C213.983 189.881 213.911 190.72 213.947 190.995L215.228 191.436C215.184 191.039 215.271 190.12 215.43 188.759C215.589 187.761 215.43 186.965 214.75 186.444L214.83 186.364C215.828 186.444 216.863 185.93 217.34 184.729C217.579 184.049 217.579 183.332 217.261 182.768V182.775ZM216.183 184.454C215.705 185.489 214.707 185.887 213.469 185.373L212.312 184.975L213.505 181.618C213.744 181.697 214.186 181.82 214.699 182.016C215.893 182.45 216.573 183.289 216.175 184.454H216.183Z" fill="#00AF47"/>
<path d="M223.926 184.613C221.531 183.615 219.057 184.613 217.783 187.406C216.582 190.083 217.465 192.558 219.737 193.593C221.929 194.671 224.484 193.832 225.808 190.836C227.045 188.202 226.329 185.727 223.934 184.613H223.926ZM224.643 190.358C223.724 192.312 221.973 193.47 220.214 192.71C218.42 191.914 218.145 189.837 218.941 187.963C219.817 186.046 221.539 184.649 223.413 185.525C225.287 186.364 225.41 188.557 224.65 190.358H224.643Z" fill="#00AF47"/>
<path d="M233.781 189.758C230.988 188.166 228.275 189.041 226.878 191.516C226.198 192.833 226.003 194.186 226.357 195.264C226.755 196.545 227.551 197.384 228.875 198.137C229.953 198.737 231.104 198.976 231.705 199.056L233.897 195.062L231.14 193.47L230.663 194.389L232.377 195.308L230.981 197.862C230.663 197.862 230.142 197.659 229.425 197.261C227.472 196.147 226.871 194.229 228.029 192.117C229.223 189.997 231.263 189.439 233.253 190.597C234.128 191.031 234.649 191.516 234.932 191.957L235.648 191.198C235.409 190.836 234.809 190.243 233.774 189.758H233.781Z" fill="#00AF47"/>
<path d="M242.167 195.829C241.928 195.069 241.327 194.353 240.206 193.593C239.526 193.195 238.73 192.717 238.172 192.515L232.984 200.38L233.983 201.017L236.298 197.587L237.217 198.267C238.172 198.904 238.295 199.584 237.811 200.901C237.413 201.979 237.058 202.818 237.058 203.093L238.172 203.81C238.172 203.332 238.491 202.493 239.012 201.176C239.33 200.221 239.33 199.381 238.932 198.86V198.781C239.931 199.063 241.002 198.781 241.725 197.746C242.167 197.146 242.282 196.386 242.167 195.829ZM240.604 197.189C240.003 198.064 238.925 198.267 237.811 197.464L236.776 196.827L238.693 193.911C238.932 193.911 239.251 194.15 239.851 194.432C240.886 195.228 241.291 196.147 240.611 197.189H240.604Z" fill="#00AF47"/>
<path d="M248.428 200.894L249.021 200.054L244.911 196.979L239.166 204.562L243.435 207.797L243.992 207.001L240.758 204.526L242.835 201.733L245.743 204.012L246.344 203.137L243.428 200.901L245.266 198.506L248.421 200.901L248.428 200.894Z" fill="#00AF47"/>
<path d="M253.022 203.129C251.626 201.972 249.947 202.008 248.948 203.129C248.109 204.128 248.268 205.445 249.151 206.841C249.831 208.035 249.867 208.838 249.31 209.511C248.666 210.192 247.711 210.228 246.676 209.475C246.04 208.875 245.598 208.079 245.403 207.558L244.527 208.079C244.607 208.759 245.28 209.555 246.003 210.112C247.718 211.668 249.317 211.385 250.352 210.192C251.271 209.113 251.068 207.999 250.273 206.559C249.636 205.242 249.433 204.562 249.998 203.882C250.396 203.325 251.358 203.086 252.313 203.925C252.993 204.526 253.268 205.119 253.427 205.445L254.303 204.924C254.144 204.446 253.782 203.81 253.029 203.129H253.022Z" fill="#00AF47"/>
<path d="M258.485 207.999C257.088 206.805 255.453 206.762 254.375 207.883C253.499 208.882 253.658 210.076 254.454 211.552C255.055 212.833 255.098 213.549 254.534 214.186C253.817 214.866 252.855 214.866 251.9 214.027C251.307 213.426 250.865 212.71 250.742 212.029L249.787 212.587C249.946 213.231 250.467 214.106 251.104 214.743C252.819 216.176 254.534 216.06 255.532 214.945C256.451 213.911 256.408 212.825 255.576 211.197C254.939 209.96 254.859 209.2 255.46 208.643C255.858 208.086 256.777 207.883 257.732 208.759C258.412 209.352 258.651 209.953 258.81 210.315L259.686 209.794C259.563 209.352 259.128 208.759 258.492 207.999H258.485Z" fill="#00AF47"/>
<path d="M264.477 213.752C262.639 211.993 259.889 212.037 257.769 214.186C255.736 216.262 255.613 218.932 257.494 220.734C259.209 222.449 261.887 222.608 264.159 220.177C266.156 218.144 266.394 215.546 264.484 213.752H264.477ZM263.196 219.338C261.641 220.857 259.643 221.45 258.167 220.018C256.807 218.701 257.248 216.624 258.725 215.112C260.201 213.636 262.241 212.956 263.674 214.432C265.229 215.864 264.513 217.941 263.196 219.338Z" fill="#00AF47"/>
<path d="M220.076 166.459L220.691 168.354H222.68L221.074 169.527L221.689 171.422L220.076 170.25L218.469 171.422L219.084 169.527L217.471 168.354H219.461L220.076 166.459Z" fill="#F0F0F0"/>
<path d="M213.26 198.267L213.709 199.649H215.163L213.991 200.503L214.44 201.885L213.26 201.031L212.088 201.885L212.537 200.503L211.357 199.649H212.812L213.26 198.267Z" fill="#F0F0F0"/>
<path d="M140.346 185.221L141.019 187.305H143.211L141.438 188.586L142.111 190.669L140.346 189.382L138.573 190.669L139.253 188.586L137.48 187.305H139.666L140.346 185.221Z" fill="#F0F0F0"/>
<path d="M170.419 200.85L171.005 202.652H172.901L171.367 203.773L171.953 205.575L170.419 204.461L168.878 205.575L169.464 203.773L167.93 202.652H169.833L170.419 200.85Z" fill="#F0F0F0"/>
<path d="M153.146 211.87L153.443 212.796H154.419L153.631 213.368L153.935 214.294L153.146 213.723L152.357 214.294L152.654 213.368L151.865 212.796H152.842L153.146 211.87Z" fill="#F0F0F0"/>
<path d="M146.381 214.439L147.047 216.479H149.196L147.452 217.746L148.118 219.786L146.381 218.52L144.645 219.786L145.31 217.746L143.566 216.479H145.715L146.381 214.439Z" fill="#F0F0F0"/>
<path d="M138.023 221.248L138.53 222.811H140.18L138.848 223.78L139.355 225.343L138.023 224.374L136.692 225.343L137.199 223.78L135.867 222.811H137.517L138.023 221.248Z" fill="#F0F0F0"/>
<path d="M160.793 221.913L161.314 223.513H162.993L161.633 224.497L162.154 226.096L160.793 225.104L159.433 226.096L159.954 224.497L158.594 223.513H160.272L160.793 221.913Z" fill="#F0F0F0"/>
<path d="M158.718 229.366L159.138 230.669H160.506L159.398 231.472L159.825 232.774L158.718 231.971L157.611 232.774L158.031 231.472L156.924 230.669H158.299L158.718 229.366Z" fill="#F0F0F0"/>
<path d="M169.007 234.489L169.651 236.486H171.756L170.056 237.724L170.707 239.721L169.007 238.491L167.299 239.721L167.95 237.724L166.25 236.486H168.356L169.007 234.489Z" fill="#F0F0F0"/>
<path d="M189.78 215.951L190.236 217.362H191.72L190.518 218.23L190.982 219.641L189.78 218.773L188.579 219.641L189.035 218.23L187.834 217.362H189.325L189.78 215.951Z" fill="#F0F0F0"/>
<path d="M196.792 228.281L197.537 230.575H199.946L197.993 231.986L198.738 234.279L196.792 232.868L194.838 234.279L195.583 231.986L193.637 230.575H196.046L196.792 228.281Z" fill="#F0F0F0"/>
<path d="M204.774 215.597L205.338 217.333H207.169L205.686 218.411L206.25 220.148L204.774 219.077L203.291 220.148L203.855 218.411L202.379 217.333H204.21L204.774 215.597Z" fill="#F0F0F0"/>
<path d="M196.794 253.715L197.04 254.489H197.857L197.199 254.966L197.452 255.741L196.794 255.263L196.135 255.741L196.381 254.966L195.723 254.489H196.54L196.794 253.715Z" fill="#F0F0F0"/>
<path d="M217.443 244.496L218.043 246.349H219.997L218.412 247.499L219.02 249.351L217.443 248.208L215.865 249.351L216.466 247.499L214.889 246.349H216.835L217.443 244.496Z" fill="#F0F0F0"/>
<path d="M211.981 237.441L212.444 238.867H213.942L212.734 239.742L213.189 241.168L211.981 240.285L210.773 241.168L211.236 239.742L210.027 238.867H211.518L211.981 237.441Z" fill="#F0F0F0"/>
<path d="M223.449 239.489L223.854 240.734H225.164L224.108 241.508L224.513 242.752L223.449 241.978L222.393 242.752L222.798 241.508L221.734 240.734H223.044L223.449 239.489Z" fill="#F0F0F0"/>
<path d="M231.415 243.273L231.965 244.974H233.752L232.305 246.023L232.855 247.723L231.415 246.674L229.968 247.723L230.518 246.023L229.078 244.974H230.865L231.415 243.273Z" fill="#F0F0F0"/>
<path d="M231.047 236.906L231.474 238.208H232.841L231.734 239.012L232.154 240.314L231.047 239.504L229.94 240.314L230.367 239.012L229.26 238.208H230.627L231.047 236.906Z" fill="#F0F0F0"/>
<path d="M238.24 237.999L238.71 239.446H240.23L239 240.336L239.47 241.783L238.24 240.893L237.01 241.783L237.48 240.336L236.25 239.446H237.77L238.24 237.999Z" fill="#F0F0F0"/>
<path d="M243.781 234.562L244.302 236.182H246.003L244.628 237.181L245.156 238.802L243.781 237.803L242.399 238.802L242.928 237.181L241.553 236.182H243.253L243.781 234.562Z" fill="#F0F0F0"/>
<path d="M247.934 228.592L248.506 230.343H250.344L248.853 231.429L249.425 233.18L247.934 232.101L246.444 233.18L247.008 231.429L245.518 230.343H247.363L247.934 228.592Z" fill="#F0F0F0"/>
<path d="M245.185 221.754L245.879 223.896H248.13L246.306 225.22L247.008 227.362L245.185 226.038L243.361 227.362L244.056 225.22L242.232 223.896H244.49L245.185 221.754Z" fill="#F0F0F0"/>
<path d="M254.657 223.643L255.113 225.061H256.604L255.403 225.929L255.858 227.348L254.657 226.472L253.449 227.348L253.912 225.929L252.711 225.061H254.194L254.657 223.643Z" fill="#F0F0F0"/>
<path d="M231.248 250.422L231.733 251.906H233.289L232.03 252.817L232.507 254.301L231.248 253.382L229.989 254.301L230.474 252.817L229.215 251.906H230.771L231.248 250.422Z" fill="#F0F0F0"/>
<path d="M196.243 210.249L196.808 211.986H198.638L197.162 213.064L197.727 214.801L196.243 213.73L194.767 214.801L195.332 213.064L193.855 211.986H195.679L196.243 210.249Z" fill="#F0F0F0"/>
<path d="M193.926 221.631L194.375 223.013H195.829L194.65 223.867L195.099 225.249L193.926 224.395L192.747 225.249L193.196 223.867L192.023 223.013H193.478L193.926 221.631Z" fill="#F0F0F0"/>
</g>
<defs>
<linearGradient id="paint0_linear_2716_2535" x1="200.006" y1="402.236" x2="200.006" y2="0" gradientUnits="userSpaceOnUse">
<stop stop-color="white" stop-opacity="0.2"/>
<stop offset="0.06" stop-color="white" stop-opacity="0.0961"/>
<stop offset="0.18" stop-color="white" stop-opacity="0.2401"/>
<stop offset="0.31" stop-color="white" stop-opacity="0.4225"/>
<stop offset="0.43" stop-color="white" stop-opacity="0.6084"/>
<stop offset="0.56" stop-color="white" stop-opacity="0.7569"/>
<stop offset="0.69" stop-color="white" stop-opacity="0.8836"/>
<stop offset="0.84" stop-color="white" stop-opacity="0.9801"/>
<stop offset="1" stop-color="white"/>
</linearGradient>
<clipPath id="clip0_2716_2535">
<rect width="400" height="402.236" fill="white"/>
</clipPath>
</defs>
</svg>
