<svg xmlns="http://www.w3.org/2000/svg" fill="none" viewBox="0 0 400 403" height="403" width="400">
<g clip-path="url(#clip0_2716_2525)">
<path fill="#EC2024" d="M55.3499 71.8486V330.511C24.5493 296.185 5.82422 250.84 5.82422 201.176C5.82422 151.512 24.5566 106.211 55.3499 71.8414V71.8486Z"></path>
<path fill="white" d="M344.682 71.8923V330.511C309.132 370.285 257.429 395.331 200.016 395.331C142.602 395.331 90.8989 370.285 55.3496 330.511V71.8486C90.8989 32.1189 142.602 7.02827 200.016 7.02827C257.429 7.02827 309.132 32.1188 344.682 71.8923Z"></path>
<path fill="#EC2024" d="M394.171 201.176C394.171 250.833 375.439 296.142 344.689 330.511V71.8923C375.446 106.262 394.171 151.563 394.171 201.184V201.176Z"></path>
<path fill="#EC2024" d="M258.477 246.179L313.232 201.701L300.472 196.209C298.68 195.466 297.726 193.507 298.243 191.635L308.396 155.263L275.505 162.32C273.415 162.757 271.368 161.446 270.888 159.4L267.319 143.938L240.706 173.515C237.48 177.083 231.602 174.083 232.564 169.378L244.807 109.393L227.036 118.497C224.421 119.845 221.202 118.847 219.803 116.232L200.029 79.598L180.256 116.232C178.814 118.847 175.631 119.845 172.98 118.497L155.209 109.393L167.452 169.378C168.457 174.083 162.572 177.091 159.353 173.515L132.689 143.938L129.12 159.4C128.64 161.446 126.593 162.757 124.547 162.32L91.612 155.263L101.765 191.635C102.289 193.507 101.328 195.466 99.5871 196.209L86.7832 201.701L141.538 246.179C144.022 248.226 144.983 251.539 143.934 254.584L139.011 268.699L192.069 261.685C194.64 261.335 196.949 263.382 196.861 265.997L195.295 322.754H204.749L203.183 265.997C203.139 263.382 205.404 261.335 207.975 261.685L261.077 268.699L256.154 254.584C255.061 251.532 256.023 248.226 258.506 246.179H258.477Z"></path>
<path fill="url(#paint0_linear_2716_2525)" d="M200.016 402.36C173.17 402.36 147.155 397.145 122.691 386.854C121.008 386.162 119.26 385.404 117.556 384.618C69.1665 362.739 30.7987 321.567 12.3285 271.685L11.8988 270.461C11.4982 269.332 11.1049 268.203 10.7844 267.031C10.6242 266.608 10.5004 266.266 10.3984 265.938C3.88727 246.645 0.398622 226.507 0.041746 206.071V205.051C-0.00195312 203.47 -0.00195312 201.781 -0.00195312 200.062V199.181C-0.00195312 198.445 -0.00195312 197.746 0.041746 197.119L0.201976 191.169C0.32579 188.329 0.493304 185.59 0.697233 182.895L1.06139 179.48C1.25804 177.652 1.45468 175.809 1.7096 173.995C1.76058 173.384 1.82613 172.815 1.91353 172.342C2.19757 170.317 2.51075 168.322 2.83121 166.341L3.10797 164.797C3.50854 162.575 3.90184 160.39 4.36796 158.256C4.94333 155.62 5.52599 153.1 6.23246 150.493C6.30529 150.121 6.37812 149.793 6.46552 149.487C6.88066 147.878 7.3395 146.123 7.88574 144.382C8.2062 143.202 8.60678 141.884 9.02192 140.544L9.1603 140.085C10.9665 134.397 12.6489 129.677 14.4479 125.271V125.198L14.8849 124.135C15.5622 122.481 16.2396 120.879 16.9606 119.357C36.7344 74.2885 72.4294 38.2222 117.425 17.9166C118.496 17.3486 119.595 16.8606 120.659 16.4163C145.786 5.53522 172.508 0 200.016 0C277.102 0 346.044 43.1383 379.933 112.576C381.79 116.378 383.451 120.143 385.017 124.076L385.199 124.499C392.693 142.816 397.369 162.036 399.102 181.628C399.379 184.432 399.59 187.353 399.75 190.179L399.845 192.83C399.874 193.777 399.911 194.716 399.954 195.685V197.127C399.991 197.775 399.998 198.401 399.998 199.101V200.055C399.998 201.773 399.998 203.456 399.962 205.175V205.969C399.962 207.593 399.889 209.137 399.809 210.674C398.942 229.945 395.519 248.415 389.619 265.764C389.496 266.288 389.321 266.798 389.131 267.322C387.864 271.16 386.495 274.846 384.958 278.582C353.895 353.774 281.304 402.36 200.024 402.36H200.016ZM12.2921 184.053C12.1027 186.537 11.957 189.057 11.8478 191.584C11.8332 192.298 11.7968 193.114 11.7677 193.929L11.6948 196.114V197.535L11.6803 197.746C11.6511 198.176 11.6584 198.664 11.6584 199.151V200.069C11.6584 201.693 11.6584 203.288 11.6948 204.92V205.983C12.0372 225.152 15.3292 244.154 21.4835 262.34L21.5854 262.683C21.7748 263.163 21.9132 263.549 22.0224 263.957C22.27 264.831 22.5832 265.713 22.8891 266.594L23.3042 267.788C40.6455 314.634 76.7847 353.409 122.399 374.035C124.009 374.778 125.611 375.463 127.177 376.111C150.236 385.805 174.729 390.714 200.016 390.714C276.563 390.714 344.923 344.961 374.179 274.146C375.607 270.68 376.881 267.242 378.068 263.651L378.483 262.319C384.092 245.931 387.34 228.444 388.156 210.346C388.236 208.743 388.308 207.396 388.308 205.983V205.065C388.345 203.303 388.345 201.708 388.345 200.076V199.122C388.345 198.613 388.345 198.168 388.316 197.688L388.301 195.969C388.265 195.211 388.228 194.235 388.192 193.245L388.105 190.783C387.952 188.205 387.762 185.452 387.493 182.742C385.861 164.301 381.484 146.268 374.463 129.073L374.223 128.519C372.759 124.819 371.2 121.287 369.46 117.718C337.545 52.286 272.615 11.6531 200.016 11.6531C174.103 11.6531 148.939 16.8606 125.225 27.1372C124.38 27.494 123.557 27.8436 122.778 28.2661L122.392 28.4554C79.9456 47.5592 46.2681 81.5499 27.5576 124.178C26.9094 125.548 26.3559 126.859 25.8024 128.199C25.7004 128.534 25.5839 128.825 25.4746 129.065C23.7048 133.348 22.0515 137.958 20.2672 143.559L20.1361 143.974C19.7646 145.183 19.3932 146.378 19.0582 147.63C18.5119 149.407 18.1041 150.988 17.6889 152.568C17.5869 153.027 17.5287 153.304 17.4558 153.559C16.8076 155.955 16.2687 158.3 15.7297 160.762C15.2927 162.757 14.9286 164.789 14.5571 166.851L14.2949 168.293C14.0036 170.128 13.6904 172.087 13.4137 174.083L13.3336 174.527C13.3263 174.622 13.3117 174.855 13.2899 175.102L13.2462 175.467C12.9985 177.207 12.8092 178.97 12.6271 180.718L12.394 182.874C12.3649 183.296 12.3285 183.689 12.2775 184.053H12.2921Z"></path>
</g>
<defs>
<linearGradient gradientUnits="userSpaceOnUse" y2="0" x2="199.994" y1="402.36" x1="199.994" id="paint0_linear_2716_2525">
<stop stop-opacity="0.2" stop-color="white"></stop>
<stop stop-opacity="0.0961" stop-color="white" offset="0.06"></stop>
<stop stop-opacity="0.2401" stop-color="white" offset="0.18"></stop>
<stop stop-opacity="0.4225" stop-color="white" offset="0.31"></stop>
<stop stop-opacity="0.6084" stop-color="white" offset="0.43"></stop>
<stop stop-opacity="0.7569" stop-color="white" offset="0.56"></stop>
<stop stop-opacity="0.8836" stop-color="white" offset="0.69"></stop>
<stop stop-opacity="0.9801" stop-color="white" offset="0.84"></stop>
<stop stop-color="white" offset="1"></stop>
</linearGradient>
<clipPath id="clip0_2716_2525">
<rect fill="white" height="402.36" width="400"></rect>
</clipPath>
</defs>
</svg>
