<svg width="401" height="403" viewBox="0 0 401 403" fill="none" xmlns="http://www.w3.org/2000/svg">
<mask id="mask0_2716_6236" style="mask-type:luminance" maskUnits="userSpaceOnUse" x="5" y="4" width="392" height="394">
<path d="M396.095 199.071V200.076C396.095 201.766 396.095 203.369 395.971 205.102V206.027C395.971 207.593 395.971 209.122 395.855 210.688C395.054 229.486 391.601 247.6 385.847 264.592C385.731 265.073 385.571 265.473 385.41 265.961C384.93 267.367 384.449 268.809 383.925 270.222C383.116 272.473 382.235 274.723 381.354 276.886C352.031 347.826 282.169 397.84 200.625 397.84C173.83 397.84 148.324 392.458 125.068 382.698C123.378 381.977 121.732 381.249 120.086 380.528C72.7229 359.079 35.4105 319.224 17.2896 270.222C17.2362 270.193 17.2095 270.166 17.2095 270.142C16.7288 268.736 16.2044 267.367 15.8038 265.961C15.6435 265.481 15.527 265.08 15.3668 264.592C9.13953 246.231 5.56342 226.508 5.19926 206.027V205.102C5.11914 203.376 5.11914 201.773 5.11914 200.076V199.071C5.11914 198.511 5.11914 197.87 5.19926 197.309V195.94C5.27937 194.41 5.32307 192.844 5.40319 191.322C5.48331 188.707 5.67996 186.136 5.84747 183.609V183.245C5.92759 182.881 5.92759 182.48 5.96401 182.159C6.20436 179.588 6.4884 177.017 6.84529 174.49C6.8817 173.966 6.96182 173.485 7.04922 173.121C7.28957 171.074 7.61004 169.064 7.9742 167.054C8.41849 164.366 8.89918 161.795 9.42358 159.261C9.9844 156.69 10.5889 154.199 11.2298 151.708C11.2735 151.38 11.3901 151.06 11.4338 150.827C11.8708 149.1 12.3588 147.411 12.8395 145.765C13.2765 144.279 13.6843 142.83 14.1213 141.431C15.0463 138.46 16.0514 135.481 17.0929 132.677C17.8941 130.543 18.7025 128.379 19.5838 126.245C19.6275 126.129 19.6639 126.005 19.7441 125.881C20.3486 124.352 20.9895 122.83 21.6741 121.344C41.0259 77.2724 76.2626 41.7225 120.086 21.9993C121.048 21.4749 122.097 21.0379 123.058 20.63C146.838 10.3095 173.065 4.60669 200.625 4.60669C277.836 4.60669 344.711 49.4355 376.452 114.548C378.258 118.248 379.904 122.021 381.434 125.874C381.477 125.998 381.55 126.114 381.594 126.238C382.439 128.372 383.284 130.499 384.048 132.669C386.416 138.977 388.389 145.444 390.072 152.072C390.349 153.274 390.669 154.439 390.917 155.685C391.762 159.261 392.519 162.793 393.123 166.413C393.284 167.615 393.524 168.824 393.721 170.069C394.048 171.875 394.245 173.762 394.485 175.612C394.806 177.782 394.966 179.873 395.207 181.999C395.447 184.811 395.644 187.702 395.804 190.47C395.928 192.32 395.964 194.082 395.964 195.94V197.309C396.088 197.95 396.088 198.474 396.088 199.071H396.095Z" fill="white"/>
</mask>
<g mask="url(#mask0_2716_6236)">
<mask id="mask1_2716_6236" style="mask-type:luminance" maskUnits="userSpaceOnUse" x="7" y="-1" width="689" height="402">
<path d="M695.962 -0.979614H7.24414V400.768H695.962V-0.979614Z" fill="white"/>
</mask>
<g mask="url(#mask1_2716_6236)">
<path d="M695.962 -0.979614H7.24414V400.768H695.962V-0.979614Z" fill="white"/>
<path d="M208.118 -0.979614H7.24414V400.768H208.118V-0.979614Z" fill="#32409A"/>
<path d="M695.962 199.894H7.24414V400.768H695.962V199.894Z" fill="#C22827"/>
<path d="M141.549 95.2549L130.398 129.545L147.551 135.117L141.549 95.2549Z" fill="white"/>
<path d="M141.548 95.2549L152.692 129.545L135.547 135.117L141.548 95.2549Z" fill="white"/>
<path d="M175.839 120.171H139.779V138.197L175.839 120.171Z" fill="white"/>
<path d="M175.841 120.171L146.671 141.366L136.066 126.777L175.841 120.171Z" fill="white"/>
<path d="M107.252 120.171L136.429 141.366L147.026 126.777L107.252 120.171Z" fill="white"/>
<path d="M107.252 120.171H143.312V138.197L107.252 120.171Z" fill="white"/>
<path d="M162.736 160.484L151.6 126.194L134.455 131.766L162.736 160.484Z" fill="white"/>
<path d="M162.736 160.484L133.566 139.29L144.171 124.701L162.736 160.484Z" fill="white"/>
<path d="M120.355 160.484L149.525 139.29L138.921 124.701L120.355 160.484Z" fill="white"/>
<path d="M120.355 160.484L131.492 126.194L148.644 131.766L120.355 160.484Z" fill="white"/>
</g>
</g>
<path d="M200.623 402.4C173.777 402.4 147.761 397.185 123.296 386.894C121.614 386.202 119.866 385.444 118.162 384.658C69.7713 362.779 31.4027 321.606 12.9395 271.723L12.5098 270.499C12.1092 269.37 11.7159 268.241 11.3882 267.061C11.2279 266.646 11.1041 266.304 11.0021 265.969C4.49086 246.69 1.00215 226.544 0.645262 206.114V205.095C0.601562 203.514 0.601562 201.825 0.601562 200.106V199.224C0.601562 198.496 0.601562 197.797 0.637979 197.17L0.718096 193.565C0.747229 192.786 0.776362 191.999 0.798212 191.22C0.922029 188.372 1.08954 185.634 1.29348 182.946L1.65764 179.559C1.85429 177.724 2.05094 175.874 2.30586 174.046C2.35684 173.434 2.42239 172.859 2.50979 172.385C2.79384 170.361 3.10703 168.372 3.42749 166.384L3.70426 164.825C4.10484 162.611 4.49814 160.433 4.96427 158.299C5.53965 155.663 6.12232 153.143 6.8288 150.535C6.90164 150.157 6.97447 149.829 7.06915 149.516C7.47702 147.943 7.93587 146.18 8.48212 144.425C8.80987 143.208 9.22501 141.861 9.64745 140.499L9.76398 140.12C11.5702 134.432 13.2527 129.712 15.0517 125.313V125.24L15.4887 124.177C16.166 122.524 16.8507 120.921 17.5644 119.399C37.3386 74.33 73.0415 38.263 118.031 17.9571C119.094 17.389 120.201 16.901 121.264 16.4567C146.392 5.56814 173.114 0.0401001 200.623 0.0401001C277.71 0.0401001 346.654 43.1792 380.543 112.626C382.401 116.428 384.061 120.193 385.62 124.126L385.693 124.301C393.296 142.866 397.972 162.094 399.706 181.679C399.982 184.483 400.194 187.404 400.354 190.229L400.449 192.815C400.478 193.784 400.514 194.738 400.558 195.728V197.178C400.594 197.826 400.602 198.445 400.602 199.144V200.098C400.602 201.817 400.602 203.492 400.565 205.211V206.005C400.565 207.629 400.485 209.173 400.412 210.717C399.545 229.982 396.122 248.452 390.223 265.801C390.099 266.326 389.924 266.828 389.735 267.353C388.468 271.191 387.098 274.884 385.561 278.62C354.498 353.813 281.905 402.393 200.623 402.393V402.4ZM12.8958 184.09C12.7064 186.573 12.5608 189.101 12.4442 191.621C12.4297 192.342 12.3933 193.179 12.3641 194.01L12.2913 196.151V197.564L12.2767 197.775C12.2476 198.205 12.2476 198.7 12.2476 199.195V200.113C12.2476 201.744 12.2476 203.332 12.284 204.964V206.02C12.6263 225.189 15.9184 244.184 22.0801 262.378L22.182 262.728C22.3714 263.201 22.5098 263.587 22.619 263.988C22.8667 264.883 23.1799 265.758 23.493 266.639L23.9082 267.833C41.2498 314.68 77.3896 353.456 123.005 374.082C124.615 374.825 126.217 375.51 127.783 376.158C150.842 385.852 175.336 390.761 200.623 390.761C277.171 390.761 345.532 345.007 374.782 274.192C376.21 270.725 377.484 267.294 378.664 263.696L379.079 262.363C384.688 245.969 387.936 228.481 388.752 210.39C388.832 208.787 388.905 207.44 388.905 206.027V205.109C388.941 203.354 388.941 201.752 388.941 200.12V199.166C388.941 198.649 388.941 198.197 388.912 197.717V196.012C388.861 195.24 388.824 194.243 388.795 193.23L388.708 190.827C388.555 188.256 388.366 185.495 388.096 182.786C386.465 164.337 382.08 146.296 375.059 129.101L374.826 128.562C373.362 124.862 371.803 121.329 370.055 117.76C338.154 52.3271 273.224 11.6934 200.623 11.6934C174.709 11.6934 149.553 16.901 125.831 27.1778C124.986 27.5346 124.163 27.8842 123.384 28.3067L122.998 28.496C80.5506 47.6002 46.8725 81.5914 28.1616 124.221C27.5134 125.59 26.9599 126.901 26.4137 128.234C26.3117 128.569 26.1952 128.867 26.0786 129.115C24.3088 133.39 22.6555 138.001 20.8783 143.602L20.7764 143.937C20.3903 145.175 20.0189 146.398 19.6693 147.68C19.123 149.465 18.7079 151.06 18.2927 152.655C18.2054 153.077 18.1398 153.354 18.067 153.623C17.426 156.005 16.8871 158.35 16.3481 160.812C15.9111 162.8 15.5469 164.825 15.1755 166.886L14.9133 168.343C14.622 170.178 14.3088 172.138 14.032 174.133L13.9519 174.585C13.9446 174.672 13.93 174.898 13.9155 175.138L13.8718 175.517C13.6241 177.265 13.4348 179.035 13.2454 180.798L13.0123 182.924C12.9832 183.347 12.9468 183.74 12.8958 184.104V184.09Z" fill="url(#paint0_linear_2716_6236)"/>
<defs>
<linearGradient id="paint0_linear_2716_6236" x1="200.602" y1="402.4" x2="200.602" y2="0.0401001" gradientUnits="userSpaceOnUse">
<stop stop-color="white" stop-opacity="0.2"/>
<stop offset="0.06" stop-color="white" stop-opacity="0.0961"/>
<stop offset="0.18" stop-color="white" stop-opacity="0.2401"/>
<stop offset="0.31" stop-color="white" stop-opacity="0.4225"/>
<stop offset="0.43" stop-color="white" stop-opacity="0.6084"/>
<stop offset="0.56" stop-color="white" stop-opacity="0.7569"/>
<stop offset="0.69" stop-color="white" stop-opacity="0.8836"/>
<stop offset="0.84" stop-color="white" stop-opacity="0.9801"/>
<stop offset="1" stop-color="white"/>
</linearGradient>
</defs>
</svg>
