<svg width="401" height="403" viewBox="0 0 401 403" fill="none" xmlns="http://www.w3.org/2000/svg">
<mask id="mask0_2716_6237" style="mask-type:luminance" maskUnits="userSpaceOnUse" x="5" y="4" width="392" height="394">
<path d="M396.09 199.074V200.079C396.09 201.769 396.09 203.371 395.966 205.105V206.03C395.966 207.595 395.966 209.125 395.85 210.691C395.048 229.489 391.596 247.602 385.842 264.594C385.726 265.074 385.566 265.475 385.406 265.963C384.925 267.369 384.444 268.811 383.92 270.224C383.111 272.474 382.23 274.725 381.349 276.888C352.027 347.826 282.166 397.84 200.624 397.84C173.829 397.84 148.323 392.457 125.068 382.698C123.378 381.977 121.732 381.249 120.086 380.528C72.7236 359.079 35.4119 319.225 17.2913 270.224C17.2379 270.195 17.2112 270.168 17.2112 270.144C16.7305 268.738 16.2061 267.369 15.8055 265.963C15.6453 265.482 15.5288 265.082 15.3685 264.594C9.14141 246.233 5.56537 226.51 5.20121 206.03V205.105C5.12109 203.379 5.12109 201.776 5.12109 200.079V199.074C5.12109 198.513 5.12109 197.872 5.20121 197.312V195.942C5.28132 194.413 5.32502 192.847 5.40514 191.325C5.48525 188.71 5.6819 186.139 5.84941 183.612V183.248C5.92953 182.884 5.92952 182.483 5.96594 182.163C6.20628 179.592 6.49033 177.021 6.84721 174.493C6.88362 173.969 6.96374 173.488 7.05113 173.124C7.29148 171.078 7.61194 169.067 7.9761 167.057C8.42038 164.37 8.90106 161.799 9.42545 159.264C9.98626 156.693 10.5908 154.202 11.2317 151.712C11.2754 151.384 11.3919 151.063 11.4356 150.83C11.8726 149.104 12.3606 147.415 12.8413 145.769C13.2783 144.283 13.6861 142.833 14.1231 141.435C15.0481 138.463 16.0532 135.485 17.0946 132.681C17.8958 130.547 18.7042 128.384 19.5855 126.25C19.6292 126.133 19.6656 126.009 19.7457 125.885C20.3502 124.356 20.9912 122.834 21.6758 121.348C41.0345 77.2847 76.2706 41.7282 120.094 22.0053C121.055 21.4809 122.104 21.0439 123.065 20.6361C146.845 10.3158 173.071 4.61304 200.631 4.61304C277.84 4.61304 344.714 49.4411 376.454 114.553C378.261 118.253 379.907 122.025 381.436 125.878C381.48 126.002 381.553 126.118 381.596 126.242C382.441 128.376 383.286 130.503 384.051 132.673C386.418 138.981 388.392 145.448 390.074 152.076C390.351 153.277 390.671 154.443 390.919 155.688C391.764 159.264 392.521 162.797 393.126 166.416C393.286 167.618 393.526 168.827 393.723 170.073C394.051 171.879 394.247 173.765 394.488 175.615C394.808 177.785 394.968 179.876 395.209 182.002C395.449 184.814 395.646 187.705 395.806 190.473C395.93 192.323 395.966 194.085 395.966 195.942V197.312C396.09 197.953 396.09 198.477 396.09 199.074Z" fill="white"/>
</mask>
<g mask="url(#mask0_2716_6237)">
<mask id="mask1_2716_6237" style="mask-type:luminance" maskUnits="userSpaceOnUse" x="-130" y="-1" width="690" height="404">
<path d="M559.993 -0.0993652H-129.973V402.377H559.993V-0.0993652Z" fill="white"/>
</mask>
<g mask="url(#mask1_2716_6237)">
<path d="M559.993 -0.0993652H-129.973V201.142H559.993V-0.0993652Z" fill="#F4D036"/>
<path d="M559.993 201.142H-129.973V301.76H559.993V201.142Z" fill="#25408F"/>
<path d="M559.993 301.76H-129.973V402.377H559.993V301.76Z" fill="#BA1F33"/>
</g>
</g>
<path d="M200.629 402.406C173.783 402.406 147.768 397.191 123.303 386.9C121.621 386.201 119.873 385.451 118.169 384.664C69.7792 362.786 31.4114 321.621 12.9412 271.731L12.5188 270.515C12.1182 269.386 11.7249 268.257 11.3972 267.084C11.237 266.662 11.1132 266.32 11.0112 265.992C4.49274 246.699 1.01138 226.561 0.647224 206.124V205.105C0.603525 203.524 0.603516 201.842 0.603516 200.116V199.234C0.603516 198.499 0.603525 197.8 0.647224 197.166L0.807455 191.216C0.931269 188.382 1.09149 185.644 1.30271 182.949L1.68144 179.431C1.87808 177.632 2.06744 175.826 2.32235 174.042C2.37333 173.437 2.43888 172.869 2.519 172.403C2.77391 170.582 3.05796 168.783 3.342 166.999L3.74258 164.705C4.13587 162.534 4.52188 160.4 4.98072 158.31C5.56337 155.674 6.13874 153.154 6.84521 150.546C6.91805 150.175 6.9836 149.869 7.06371 149.578C7.5007 147.91 7.95954 146.169 8.49121 144.436C8.80439 143.27 9.20497 141.974 9.61283 140.663L9.77306 140.139C11.5502 134.538 13.2763 129.694 15.0606 125.325V125.244L15.5049 124.174C16.1823 122.528 16.8596 120.918 17.5806 119.403C37.3545 74.3422 73.0567 38.2686 118.052 17.963C119.123 17.3949 120.223 16.907 121.293 16.4627C146.391 5.58161 173.113 0.0463867 200.629 0.0463867C277.714 0.0463867 346.657 43.1847 380.546 112.63C382.403 116.432 384.071 120.197 385.629 124.145L385.811 124.552C393.306 142.87 397.982 162.09 399.708 181.682C399.992 184.486 400.196 187.406 400.356 190.232L400.458 192.949C400.487 193.874 400.523 194.792 400.56 195.738V197.18C400.596 197.829 400.604 198.455 400.604 199.154V200.108C400.604 201.827 400.604 203.51 400.567 205.228V206.022C400.567 207.617 400.494 209.147 400.414 210.662C399.54 229.991 396.124 248.461 390.232 265.803C390.079 266.444 389.883 266.968 389.737 267.376C388.455 271.236 387.086 274.928 385.564 278.636C354.501 353.827 281.909 402.413 200.629 402.413V402.406ZM12.9048 184.107C12.7155 186.591 12.5698 189.103 12.4606 191.623L12.3076 196.146V197.581L12.293 197.807C12.2639 198.229 12.2639 198.71 12.2639 199.198V200.116C12.2639 201.74 12.2639 203.335 12.3003 204.959V206.03C12.6426 225.206 15.9346 244.201 22.0962 262.387L22.1982 262.722C22.3875 263.21 22.5259 263.596 22.6352 263.996C22.8828 264.885 23.196 265.766 23.5092 266.655L23.9243 267.842C41.2656 314.687 77.4047 353.463 123.019 374.089C124.629 374.832 126.231 375.517 127.79 376.165C150.848 385.859 175.349 390.768 200.629 390.768C277.175 390.768 345.535 345.015 374.785 274.2C376.205 270.755 377.479 267.318 378.674 263.698L379.089 262.365C384.697 245.978 387.945 228.491 388.761 210.385L388.776 210.072C388.841 208.746 388.914 207.413 388.914 206.022V205.105C388.95 203.342 388.95 201.747 388.95 200.116V199.161C388.95 198.652 388.95 198.207 388.921 197.727L388.907 196.008C388.87 195.28 388.834 194.318 388.805 193.349L388.717 190.83C388.564 188.251 388.375 185.491 388.106 182.782C386.481 164.355 382.104 146.337 375.098 129.155L374.952 128.82C373.372 124.851 371.813 121.319 370.072 117.757C338.157 52.347 273.228 11.7141 200.629 11.7141C174.715 11.7141 149.552 16.9215 125.838 27.1981C124.986 27.555 124.17 27.9046 123.391 28.327L122.997 28.5237C80.5511 47.6275 46.8736 81.6181 28.1631 124.247C27.5222 125.609 26.9687 126.912 26.4224 128.238C26.3205 128.573 26.2039 128.871 26.0874 129.134C24.3103 133.423 22.657 138.026 20.8872 143.62L20.7415 144.101C20.3774 145.288 20.0132 146.46 19.6782 147.691C19.1392 149.454 18.7314 151.034 18.3162 152.607C18.2143 153.081 18.156 153.35 18.0832 153.605C17.435 156.016 16.896 158.361 16.3498 160.823C15.9201 162.767 15.5632 164.756 15.2063 166.773L14.8422 168.827C14.5654 170.582 14.2813 172.352 14.0337 174.144L13.9536 174.573C13.939 174.683 13.9245 174.923 13.9026 175.178L13.8662 175.52C13.6259 177.225 13.4365 178.958 13.2544 180.677L13.0068 182.935C12.9849 183.342 12.9412 183.743 12.8903 184.114L12.9048 184.107Z" fill="url(#paint0_linear_2716_6237)"/>
<defs>
<linearGradient id="paint0_linear_2716_6237" x1="200.607" y1="402.406" x2="200.607" y2="0.0463867" gradientUnits="userSpaceOnUse">
<stop stop-color="white" stop-opacity="0.2"/>
<stop offset="0.06" stop-color="white" stop-opacity="0.0961"/>
<stop offset="0.18" stop-color="white" stop-opacity="0.2401"/>
<stop offset="0.31" stop-color="white" stop-opacity="0.4225"/>
<stop offset="0.43" stop-color="white" stop-opacity="0.6084"/>
<stop offset="0.56" stop-color="white" stop-opacity="0.7569"/>
<stop offset="0.69" stop-color="white" stop-opacity="0.8836"/>
<stop offset="0.84" stop-color="white" stop-opacity="0.9801"/>
<stop offset="1" stop-color="white"/>
</linearGradient>
</defs>
</svg>
