<svg xmlns="http://www.w3.org/2000/svg" fill="none" viewBox="0 0 400 403" height="403" width="400">
<g clip-path="url(#clip0_2716_2603)">
<path fill="#263677" d="M349.818 70.838H58.0312C93.9519 30.8241 146.056 5.54419 203.921 5.54419C261.786 5.54419 313.941 30.8241 349.818 70.838Z"></path>
<path fill="white" d="M388.602 266.727C380.03 291.045 366.709 313.157 349.819 332.021H58.033C41.1433 313.157 27.866 291.038 19.25 266.727H388.602Z"></path>
<path fill="#263677" d="M349.818 332.021C313.941 372.078 261.829 397.314 203.921 397.314C146.012 397.314 93.9519 372.078 58.0312 332.021H349.818Z"></path>
<path fill="#CC2027" d="M399.809 201.426C399.809 224.331 395.854 246.275 388.6 266.719H19.2479C11.9938 246.275 8.03906 224.331 8.03906 201.426C8.03906 178.52 11.9938 156.576 19.2479 136.132H388.6C395.854 156.576 399.809 178.52 399.809 201.426Z"></path>
<path fill="white" d="M388.602 136.132H19.25C27.866 111.813 41.1505 89.7016 58.033 70.8381H349.819C366.709 89.7016 380.03 111.821 388.602 136.132Z"></path>
<mask height="403" width="401" y="0" x="-1" maskUnits="userSpaceOnUse" style="mask-type:luminance" id="mask0_2716_2603">
<path fill="white" d="M399.996 0.0456543H-0.00390625V402.405H399.996V0.0456543Z"></path>
</mask>
<g mask="url(#mask0_2716_2603)">
<mask height="403" width="402" y="0" x="-1" maskUnits="userSpaceOnUse" style="mask-type:luminance" id="mask1_2716_2603">
<path fill="white" d="M127.185 376.15C125.619 375.502 124.017 374.81 122.407 374.067C76.7929 353.441 40.6537 314.665 23.3124 267.82L22.8973 266.632C22.5841 265.751 22.2709 264.87 22.0233 263.981C21.9141 263.581 21.7757 263.195 21.5863 262.721L21.4843 262.372C15.3301 244.178 12.0308 225.184 11.6957 206.014V204.958C11.652 203.327 11.652 201.739 11.652 200.108V199.19C11.652 198.695 11.652 198.2 11.6739 197.77L11.6885 197.559V196.146L11.7613 194.004C11.7904 193.174 11.8268 192.344 11.8414 191.616C11.9507 189.088 12.1036 186.568 12.293 184.085C12.3439 183.728 12.3876 183.327 12.4095 182.905L12.6426 180.778C12.8319 179.016 13.0213 177.246 13.2689 175.498L13.3126 175.119C13.3272 174.886 13.3417 174.66 13.3563 174.566L13.4364 174.114C13.7132 172.119 14.0264 170.159 14.3177 168.324L14.5799 166.86C14.9513 164.799 15.3155 162.774 15.7525 160.786C16.2914 158.324 16.8304 155.979 17.4713 153.59C17.5441 153.328 17.6097 153.044 17.6971 152.629C18.1122 151.034 18.5274 149.439 19.0736 147.654C19.4232 146.372 19.8019 145.149 20.1879 143.903L20.2899 143.583C22.067 137.975 23.7203 133.365 25.4901 129.089C25.5993 128.849 25.7159 128.55 25.8178 128.215C26.3714 126.883 26.9249 125.572 27.5731 124.202C46.2763 81.5739 79.9611 47.5833 122.407 28.4795L122.801 28.2901C123.58 27.8677 124.403 27.5108 125.248 27.1612C148.962 16.8919 174.125 11.6772 200.039 11.6772C272.638 11.6772 337.56 52.3101 369.482 117.713C371.223 121.282 372.789 124.821 374.253 128.514L374.486 129.053C381.507 146.256 385.891 164.296 387.523 182.745C387.792 185.454 387.989 188.214 388.135 190.785L388.222 193.189C388.258 194.201 388.288 195.199 388.331 195.971V197.682C388.368 198.163 388.368 198.615 388.368 199.132V200.086C388.368 201.717 388.368 203.32 388.331 205.075V205.993C388.331 207.406 388.258 208.753 388.178 210.355C387.37 228.454 384.114 245.941 378.506 262.328L378.091 263.661C376.904 267.259 375.637 270.689 374.209 274.156C344.953 344.97 276.593 390.723 200.046 390.723C174.759 390.723 150.266 385.815 127.207 376.121M200.024 0.0458984C172.509 0.0458984 145.787 5.58112 120.667 16.4622C119.603 16.9065 118.504 17.3945 117.433 17.9625C72.4375 38.2681 36.7353 74.3344 16.9615 119.395C16.2405 120.918 15.5631 122.527 14.8858 124.173L14.4488 125.237V125.309C12.6498 129.709 10.9674 134.428 9.16119 140.116L9.04466 140.48C8.62224 141.85 8.20709 143.197 7.87935 144.421C7.33311 146.183 6.87427 147.946 6.46641 149.511C6.37173 149.817 6.2989 150.152 6.22607 150.531C5.5196 153.131 4.94423 155.651 4.36157 158.295C3.89545 160.422 3.50216 162.607 3.10158 164.821L2.81754 166.379C2.49707 168.368 2.1839 170.356 1.89985 172.381C1.81246 172.854 1.74691 173.429 1.69592 174.041C1.44101 175.869 1.24437 177.719 1.04772 179.555L0.683561 182.941C0.479632 185.636 0.312118 188.367 0.188304 191.215C0.166455 192.002 0.137322 192.788 0.108189 193.56L0.0280741 197.165C-0.00834181 197.792 -0.015625 198.491 -0.015625 199.219V200.101C-0.00105862 201.827 -0.00105862 203.509 0.0426405 205.097V206.116C0.4068 226.553 3.88816 246.691 10.4066 265.984C10.5086 266.319 10.6324 266.662 10.7926 267.077C11.1204 268.249 11.5137 269.378 11.907 270.514L12.3367 271.738C30.8068 321.621 69.1747 362.792 117.564 384.671C119.268 385.465 121.016 386.215 122.699 386.907C147.163 397.191 173.179 402.406 200.024 402.406C281.305 402.406 353.896 353.827 384.959 278.628C386.496 274.892 387.865 271.206 389.132 267.361C389.329 266.836 389.497 266.327 389.62 265.809C395.52 248.461 398.943 229.983 399.81 210.719C399.89 209.175 399.97 207.631 399.97 206.007V205.213C400.006 203.494 400.006 201.819 400.006 200.101V199.146C400.006 198.447 400.006 197.828 399.97 197.18V195.731C399.919 194.74 399.89 193.786 399.853 192.817L399.759 190.232C399.591 187.406 399.387 184.485 399.11 181.681C397.377 162.09 392.701 142.869 385.098 124.304L385.025 124.13C383.459 120.197 381.798 116.431 379.941 112.629C346.045 43.1842 277.11 0.0458984 200.024 0.0458984Z"></path>
</mask>
<g mask="url(#mask1_2716_2603)">
<path fill="url(#paint0_linear_2716_2603)" d="M399.996 0.0458984H-0.00390625V402.406H399.996V0.0458984Z"></path>
</g>
</g>
</g>
<defs>
<linearGradient gradientUnits="userSpaceOnUse" y2="-6.63534" x2="187.266" y1="395.724" x1="187.266" id="paint0_linear_2716_2603">
<stop stop-color="white"></stop>
<stop stop-color="white" offset="1"></stop>
</linearGradient>
<clipPath id="clip0_2716_2603">
<rect transform="translate(0 0.045166)" fill="white" height="402.36" width="400"></rect>
</clipPath>
</defs>
</svg>
