<svg xmlns="http://www.w3.org/2000/svg" fill="none" viewBox="0 0 401 403" height="403" width="401">
<mask height="392" width="392" y="6" x="6" maskUnits="userSpaceOnUse" style="mask-type:luminance" id="mask0_2716_6239">
<path fill="white" d="M202.167 397.569C310.111 397.569 397.618 310.062 397.618 202.117C397.618 94.1722 310.111 6.66553 202.167 6.66553C94.2215 6.66553 6.71484 94.1722 6.71484 202.117C6.71484 310.062 94.2215 397.569 202.167 397.569Z"></path>
</mask>
<g mask="url(#mask0_2716_6239)">
<path fill="#049A49" d="M-80.4824 399.208H484.839L202.171 240.216L-80.4824 399.208Z"></path>
<path fill="#049A49" d="M484.839 8.39209H-80.4824L202.171 167.391L484.839 8.39209Z"></path>
<path fill="black" d="M-145.217 362.799L137.436 203.8L-145.217 44.8081V362.799Z"></path>
<path fill="black" d="M549.569 362.799V44.8081L266.916 203.8L549.569 362.799Z"></path>
<path fill="#FCD007" d="M549.57 8.39209H484.837L202.169 167.391L-80.4838 8.39209H-145.217V44.808L137.436 203.8L-145.217 362.799V399.208H-80.4838L202.169 240.216L484.837 399.208H549.57V362.799L266.917 203.8L549.57 44.808V8.39209Z"></path>
</g>
<mask height="403" width="401" y="0" x="0" maskUnits="userSpaceOnUse" style="mask-type:luminance" id="mask1_2716_6239">
<path fill="white" d="M400.604 0.0458984H0.603516V402.406H400.604V0.0458984Z"></path>
</mask>
<g mask="url(#mask1_2716_6239)">
<mask height="403" width="401" y="0" x="0" maskUnits="userSpaceOnUse" style="mask-type:luminance" id="mask2_2716_6239">
<path fill="white" d="M127.784 376.143C126.218 375.494 124.616 374.81 123.006 374.067C77.3989 353.441 41.2597 314.672 23.9111 267.82L23.496 266.632C23.1828 265.744 22.8696 264.863 22.622 263.989C22.5128 263.581 22.3744 263.188 22.185 262.714L22.0831 262.365C15.9288 244.178 12.6295 225.184 12.2945 206.007V204.944C12.2508 203.312 12.2508 201.725 12.2508 200.101V199.183C12.2508 198.695 12.2508 198.207 12.2726 197.777L12.2872 197.559V196.138L12.4401 191.608C12.5494 189.088 12.7023 186.568 12.8844 184.085C12.9354 183.721 12.9791 183.32 13.0009 182.905L13.2413 180.705C13.4306 178.972 13.6127 177.224 13.8603 175.498L13.8968 175.134C13.9186 174.886 13.9332 174.66 13.9405 174.573L14.0206 174.121C14.2973 172.126 14.6105 170.167 14.9018 168.331L15.1567 166.904C15.5282 164.835 15.8923 162.789 16.3293 160.793C16.8683 158.331 17.4072 155.986 18.0555 153.576C18.1283 153.321 18.1866 153.044 18.2303 152.796L18.3104 152.505C18.7109 150.961 19.1188 149.41 19.6578 147.662C19.9928 146.431 20.3569 145.258 20.7211 144.064L20.8668 143.59C22.6439 137.997 24.2971 133.394 26.067 129.104C26.1762 128.864 26.2927 128.572 26.3947 128.237C26.9482 126.904 27.5017 125.586 28.15 124.217C46.8532 81.5885 80.5306 47.5978 122.977 28.494L123.363 28.3047C124.142 27.8822 124.965 27.5254 125.81 27.1685C149.524 16.8992 174.688 11.6844 200.601 11.6844C273.2 11.6844 338.122 52.3174 370.045 117.72C371.793 121.296 373.351 124.829 374.815 128.521L375.056 129.089C382.069 146.278 386.454 164.311 388.078 182.752C388.347 185.461 388.544 188.222 388.69 190.793L388.777 193.262C388.806 194.245 388.843 195.228 388.886 195.978V197.697C388.93 198.171 388.923 198.622 388.923 199.132V200.086C388.923 201.717 388.923 203.312 388.886 205.075V205.993C388.886 207.384 388.813 208.717 388.748 210.042L388.733 210.355C387.918 228.454 384.662 245.941 379.061 262.328L378.646 263.661C377.459 267.266 376.184 270.696 374.757 274.156C345.508 344.963 277.14 390.723 200.601 390.723C175.314 390.723 150.821 385.815 127.762 376.121M200.623 0.0458984C173.107 0.0458984 146.385 5.57384 121.273 16.4622C120.209 16.9065 119.102 17.3945 118.032 17.9625C73.0363 38.2681 37.3413 74.3344 17.5675 119.396C16.8464 120.918 16.1691 122.52 15.4918 124.173L15.0548 125.237V125.309C13.2777 129.679 11.5443 134.523 9.76719 140.123L9.60696 140.641C9.1991 141.959 8.80581 143.255 8.49263 144.421C7.96096 146.132 7.5094 147.851 7.07241 149.548C6.98501 149.847 6.91218 150.174 6.83934 150.538C6.13287 153.139 5.55022 155.659 4.97485 158.302C4.50144 160.444 4.10815 162.629 3.70757 164.857L3.43082 166.387C3.11036 168.375 2.79717 170.363 2.51313 172.388C2.42573 172.861 2.36747 173.43 2.31649 174.034C2.06158 175.84 1.86492 177.661 1.66827 179.482L1.29684 182.941C1.09291 185.636 0.925399 188.367 0.801585 191.215L0.641354 197.165C0.604938 197.792 0.597656 198.491 0.597656 199.227V200.108C0.597656 201.834 0.597654 203.516 0.641354 205.097V206.116C1.00551 226.553 4.48687 246.698 11.0053 265.984C11.1073 266.319 11.2238 266.654 11.3913 267.077C11.7191 268.249 12.1124 269.378 12.513 270.507L12.9427 271.723C31.4128 321.606 69.7807 362.778 118.163 384.657C119.867 385.45 121.622 386.201 123.298 386.893C147.762 397.176 173.777 402.391 200.623 402.391C281.904 402.391 354.488 353.812 385.558 278.621C387.095 274.892 388.457 271.206 389.731 267.361C389.884 266.953 390.073 266.429 390.226 265.788C396.119 248.446 399.542 229.976 400.416 210.647C400.488 209.124 400.569 207.602 400.569 206.007V205.213C400.605 203.495 400.605 201.812 400.605 200.093V199.139C400.605 198.44 400.605 197.814 400.569 197.165V195.723C400.518 194.755 400.488 193.822 400.459 192.883L400.365 190.225C400.197 187.399 399.993 184.478 399.716 181.674C397.983 162.082 393.307 142.862 385.813 124.545L385.638 124.137C384.072 120.197 382.412 116.431 380.554 112.622C346.651 43.1842 277.708 0.0458984 200.623 0.0458984Z"></path>
</mask>
<g mask="url(#mask2_2716_6239)">
<path fill="url(#paint0_linear_2716_6239)" d="M400.604 0.0463867H0.603516V402.406H400.604V0.0463867Z"></path>
</g>
</g>
<defs>
<linearGradient gradientUnits="userSpaceOnUse" y2="-7.18765" x2="190.685" y1="395.172" x1="190.685" id="paint0_linear_2716_6239">
<stop stop-color="white"></stop>
<stop stop-color="white" offset="1"></stop>
</linearGradient>
</defs>
</svg>
