<svg xmlns="http://www.w3.org/2000/svg" fill="none" viewBox="0 0 400 403" height="403" width="400">
<g clip-path="url(#clip0_2716_2647)">
<path fill="white" d="M395.812 201.175C395.812 306.046 313.373 391.66 209.763 396.751H199.996V201.175H395.812Z"></path>
<path fill="white" d="M199.997 5.6001V201.176H4.18164C4.18164 96.3049 86.6273 10.691 190.238 5.6001H200.005H199.997Z"></path>
<path fill="#D21F36" d="M395.812 201.176H199.996V5.6001H209.763C313.373 10.691 395.812 96.3049 395.812 201.176Z"></path>
<path fill="#005392" d="M199.997 201.176V396.751H190.231C86.6273 391.668 4.18164 306.046 4.18164 201.176H199.997Z"></path>
<path fill="#D21F36" d="M298.552 293.679L322.295 276.433H292.944L283.876 248.523L274.809 276.433H245.465L269.208 293.679L260.14 321.588L283.876 304.342L307.62 321.588L298.552 293.679Z"></path>
<path fill="#005392" d="M125.191 108.672L116.124 80.7627L107.056 108.672H77.7051L101.448 125.926L92.3807 153.828L116.124 136.581L139.86 153.828L130.792 125.926L154.535 108.672H125.191Z"></path>
<mask height="404" width="401" y="-1" x="-1" maskUnits="userSpaceOnUse" style="mask-type:luminance" id="mask0_2716_2647">
<path fill="white" d="M399.998 -0.000976562H-0.00195312V402.351H399.998V-0.000976562Z"></path>
</mask>
<g mask="url(#mask0_2716_2647)">
<mask height="404" width="401" y="-1" x="0" maskUnits="userSpaceOnUse" style="mask-type:luminance" id="mask1_2716_2647">
<path fill="white" d="M127.18 376.095C125.614 375.447 124.011 374.762 122.409 374.019C76.7945 353.393 40.6553 314.618 23.314 267.772L22.8989 266.592C22.5857 265.704 22.2725 264.823 22.0249 263.934C21.9156 263.533 21.7773 263.147 21.5879 262.659L21.4859 262.324C15.3316 244.138 12.0324 225.144 11.6973 205.967V204.896C11.6536 203.272 11.6536 201.677 11.6536 200.053V199.135C11.6536 198.648 11.6536 198.167 11.6755 197.744L11.69 197.526V196.091L11.843 191.568C11.9522 189.048 12.1052 186.528 12.2873 184.052C12.3383 183.681 12.3819 183.28 12.4038 182.872L12.6514 180.614C12.8335 178.895 13.0156 177.169 13.2632 175.458L13.3069 175.108C13.3288 174.853 13.3433 174.613 13.3579 174.504L13.4307 174.074C13.6929 172.173 13.9915 170.301 14.312 168.291L14.5742 166.82C14.9456 164.766 15.3025 162.741 15.7395 160.76C16.2785 158.299 16.8174 155.953 17.4656 153.543C17.5384 153.288 17.5967 153.018 17.6987 152.53C18.1065 150.964 18.5144 149.391 19.0533 147.636C19.3884 146.405 19.7525 145.225 20.1167 144.031L20.2624 143.557C22.0395 137.964 23.6927 133.354 25.4626 129.064C25.5791 128.809 25.6956 128.51 25.7976 128.175C26.3511 126.843 26.8973 125.539 27.5383 124.177C46.2488 81.5484 79.9262 47.5578 122.373 28.454L122.766 28.2646C123.545 27.8422 124.361 27.4926 125.213 27.1357C148.927 16.8664 174.083 11.6516 200.004 11.6516C272.603 11.6516 337.525 52.2845 369.448 117.695C371.188 121.256 372.747 124.789 374.327 128.758L374.473 129.086C381.479 146.274 385.857 164.293 387.488 182.719C387.757 185.429 387.954 188.182 388.1 190.767L388.187 193.287C388.224 194.256 388.253 195.21 388.289 195.945L388.304 197.664C388.333 198.138 388.326 198.589 388.326 199.099V200.053C388.326 201.685 388.326 203.28 388.289 205.042V205.96C388.289 207.351 388.216 208.684 388.151 210.009L388.136 210.33C387.32 228.428 384.065 245.923 378.464 262.303L378.049 263.635C376.855 267.255 375.58 270.693 374.16 274.138C344.91 344.945 276.543 390.705 200.004 390.705C174.724 390.705 150.224 385.796 127.165 376.102M200.026 -0.00146484C172.51 -0.00146484 145.788 5.53376 120.676 16.4076C119.605 16.8518 118.505 17.3471 117.435 17.9152C72.4391 38.2207 36.7369 74.2871 16.9631 119.348C16.2493 120.87 15.572 122.473 14.8874 124.119L14.4431 125.189V125.269C12.6587 129.639 10.9326 134.483 9.1555 140.083L9.00255 140.593C8.59469 141.911 8.19412 143.208 7.88094 144.38C7.34927 146.114 6.89042 147.847 6.45343 149.522C6.37332 149.814 6.30049 150.12 6.23494 150.491C5.53575 153.091 4.9531 155.611 4.37044 158.248C3.90432 160.374 3.51103 162.545 3.11773 164.759L2.78999 166.601C2.49138 168.502 2.18549 170.403 1.91601 172.341C1.83589 172.807 1.77034 173.375 1.71936 173.979C1.47173 175.764 1.27509 177.57 1.07844 179.369L0.706999 182.887C0.503069 185.581 0.335556 188.32 0.211742 191.153L0.0515116 197.103C0.0150957 197.73 0.0078125 198.436 0.0078125 199.172V200.053C0.0078125 201.779 0.0078125 203.469 0.0515116 205.042V206.062C0.408388 226.498 3.89704 246.644 10.4155 265.93C10.5175 266.257 10.634 266.6 10.8015 267.022C11.1292 268.195 11.5225 269.324 11.9231 270.452L12.3455 271.669C30.8157 321.551 69.1835 362.723 117.573 384.602C119.277 385.388 121.025 386.146 122.708 386.838C147.179 397.122 173.195 402.336 200.033 402.336C281.314 402.336 353.898 353.758 384.968 278.566C386.49 274.859 387.859 271.166 389.141 267.306C389.287 266.898 389.484 266.374 389.637 265.733C395.529 248.392 398.952 229.929 399.826 210.592C399.906 209.07 399.979 207.548 399.979 205.953V205.159C400.015 203.44 400.015 201.757 400.015 200.039V199.084C400.015 198.385 400.015 197.759 399.979 197.111V195.661C399.928 194.715 399.899 193.797 399.869 192.872L399.767 190.155C399.6 187.322 399.396 184.409 399.119 181.605C397.393 162.02 392.717 142.793 385.223 124.476L385.041 124.068C383.475 120.12 381.807 116.355 379.957 112.553C346.047 43.1369 277.111 -0.00146484 200.026 -0.00146484Z"></path>
</mask>
<g mask="url(#mask1_2716_2647)">
<path fill="url(#paint0_linear_2716_2647)" d="M399.998 -0.00146484H-0.00195312V402.351H399.998V-0.00146484Z"></path>
</g>
</g>
</g>
<defs>
<linearGradient gradientUnits="userSpaceOnUse" y2="-6.68997" x2="186.452" y1="395.67" x1="186.452" id="paint0_linear_2716_2647">
<stop stop-color="white"></stop>
<stop stop-color="white" offset="1"></stop>
</linearGradient>
<clipPath id="clip0_2716_2647">
<rect fill="white" height="402.352" width="400"></rect>
</clipPath>
</defs>
</svg>
