<svg width="401" height="403" viewBox="0 0 401 403" fill="none" xmlns="http://www.w3.org/2000/svg">
<mask id="mask0_2716_6241" style="mask-type:luminance" maskUnits="userSpaceOnUse" x="5" y="4" width="392" height="394">
<path d="M396.089 199.072V200.077C396.089 201.767 396.089 203.369 395.965 205.102V206.027C395.965 207.593 395.965 209.122 395.848 210.688C395.047 229.486 391.595 247.599 385.841 264.59C385.725 265.071 385.565 265.471 385.404 265.959C384.924 267.365 384.443 268.807 383.919 270.22C383.11 272.47 382.229 274.721 381.348 276.884C352.026 347.821 282.167 397.834 200.626 397.834C173.832 397.834 148.326 392.452 125.072 382.692C123.382 381.971 121.736 381.243 120.09 380.522C72.7283 359.073 35.4172 319.22 17.2969 270.22C17.2435 270.191 17.2168 270.164 17.2168 270.14C16.7361 268.734 16.2118 267.365 15.8112 265.959C15.651 265.479 15.5344 265.078 15.3742 264.59C9.14719 246.23 5.57122 226.507 5.20707 206.027V205.102C5.12695 203.376 5.12695 201.774 5.12695 200.077V199.072C5.12695 198.511 5.12695 197.87 5.20707 197.309V195.94C5.28718 194.411 5.33088 192.845 5.41099 191.323C5.49111 188.708 5.68775 186.137 5.85526 183.61V183.246C5.93537 182.882 5.93536 182.481 5.97178 182.161C6.21212 179.59 6.49616 177.019 6.85303 174.492C6.88945 173.967 6.96956 173.486 7.05696 173.122C7.2973 171.076 7.61776 169.066 7.98191 167.056C8.42618 164.368 8.90685 161.797 9.43123 159.263C9.99203 156.692 10.5965 154.201 11.2374 151.71C11.2811 151.382 11.3977 151.062 11.4414 150.829C11.8783 149.103 12.3663 147.413 12.847 145.767C13.284 144.281 13.6918 142.832 14.1288 141.434C15.0538 138.462 16.0588 135.483 17.1003 132.679C17.9014 130.546 18.7099 128.383 19.5911 126.249C19.6348 126.132 19.6712 126.008 19.7513 125.884C20.3558 124.355 20.9967 122.833 21.6813 121.347C41.0397 77.2846 76.2751 41.7287 120.097 22.0062C121.059 21.4818 122.107 21.0448 123.069 20.637C146.848 10.3169 173.074 4.61426 200.633 4.61426C277.841 4.61426 344.714 49.4415 376.454 114.552C378.26 118.252 379.906 122.024 381.435 125.877C381.479 126.001 381.552 126.117 381.595 126.241C382.44 128.375 383.285 130.502 384.05 132.672C386.417 138.979 388.391 145.447 390.073 152.074C390.35 153.276 390.67 154.441 390.918 155.687C391.763 159.263 392.52 162.795 393.124 166.415C393.285 167.616 393.525 168.825 393.722 170.071C394.049 171.877 394.246 173.763 394.486 175.613C394.807 177.783 394.967 179.874 395.207 182C395.448 184.812 395.644 187.703 395.805 190.471C395.928 192.32 395.965 194.083 395.965 195.94V197.309C396.089 197.95 396.089 198.475 396.089 199.072Z" fill="white"/>
</mask>
<g mask="url(#mask0_2716_6241)">
<mask id="mask1_2716_6241" style="mask-type:luminance" maskUnits="userSpaceOnUse" x="-149" y="-2" width="699" height="408">
<path d="M549.47 -1.2627H-148.254V405.744H549.47V-1.2627Z" fill="white"/>
</mask>
<g mask="url(#mask1_2716_6241)">
<path d="M549.47 -1.2627H-148.254V405.744H549.47V-1.2627Z" fill="#BA1F33"/>
<path d="M276.1 -1.2627H125.107V405.744H276.1V-1.2627Z" fill="white"/>
</g>
</g>
<path d="M200.633 402.401C173.788 402.401 147.773 397.187 123.309 386.896C121.627 386.204 119.879 385.446 118.174 384.66C69.7858 362.781 31.4187 321.61 12.9561 271.729L12.5264 270.512C12.1258 269.384 11.7326 268.255 11.4048 267.082C11.2446 266.66 11.1208 266.317 11.0188 265.99C4.50049 246.704 1.01919 226.559 0.655036 206.123V205.103C0.611337 203.523 0.611328 201.84 0.611328 200.114V199.233C0.611328 198.498 0.611337 197.798 0.655036 197.172L0.815253 191.222C0.939065 188.381 1.10658 185.643 1.31051 182.955L1.68194 179.496C1.87858 177.683 2.07523 175.855 2.32285 174.048C2.37383 173.437 2.43938 172.868 2.52678 172.395C2.81081 170.37 3.12398 168.375 3.44444 166.394L3.7212 164.864C4.12176 162.643 4.51505 160.451 4.98845 158.31C5.56381 155.666 6.14646 153.153 6.85291 150.546C6.92574 150.182 6.99857 149.854 7.08596 149.555C7.52295 147.858 7.97451 146.147 8.50617 144.428C8.81934 143.27 9.21262 141.966 9.62048 140.648L9.7807 140.131C11.5578 134.53 13.2911 129.687 15.0682 125.317V125.245L15.5052 124.181C16.1825 122.528 16.8598 120.926 17.5809 119.404C37.3543 74.3433 73.0486 38.2776 118.043 17.9724C119.114 17.4044 120.214 16.9164 121.284 16.4721C146.396 5.58395 173.118 0.0488281 200.633 0.0488281C277.717 0.0488281 346.658 43.1864 380.547 112.623C382.404 116.432 384.072 120.197 385.63 124.13L385.812 124.545C393.306 142.862 397.982 162.082 399.715 181.674C399.992 184.478 400.203 187.398 400.364 190.224L400.458 192.882C400.488 193.822 400.524 194.754 400.568 195.723V197.165C400.604 197.813 400.611 198.439 400.611 199.138V200.093C400.611 201.811 400.611 203.494 400.575 205.213V205.999C400.575 207.594 400.502 209.124 400.422 210.638C399.548 229.968 396.125 248.43 390.233 265.778C390.08 266.427 389.891 266.951 389.738 267.359C388.47 271.197 387.101 274.89 385.565 278.618C354.502 353.809 281.912 402.394 200.633 402.394V402.401ZM12.9051 184.099C12.7158 186.582 12.5701 189.102 12.4609 191.622L12.3079 196.152V197.573L12.2934 197.791C12.2642 198.214 12.2642 198.701 12.2642 199.197V200.114C12.2642 201.739 12.2642 203.333 12.3006 204.958V206.021C12.6429 225.197 15.9349 244.191 22.0963 262.377L22.1983 262.727C22.3877 263.2 22.526 263.593 22.6353 264.001C22.8829 264.875 23.1961 265.757 23.5093 266.645L23.9244 267.832C41.2654 314.677 77.4039 353.452 123.018 374.077C124.627 374.82 126.229 375.505 127.795 376.153C150.853 385.847 175.346 390.756 200.633 390.756C277.178 390.756 345.537 345.003 374.786 274.19C376.213 270.731 377.48 267.293 378.675 263.695L379.09 262.363C384.698 245.976 387.946 228.489 388.762 210.391L388.776 210.078C388.842 208.752 388.915 207.419 388.915 206.028V205.111C388.951 203.348 388.951 201.753 388.951 200.122V199.168C388.951 198.658 388.951 198.214 388.922 197.733L388.907 196.014C388.871 195.264 388.835 194.288 388.805 193.305L388.718 190.836C388.565 188.258 388.376 185.505 388.106 182.795C386.475 164.355 382.098 146.322 375.084 129.134L374.844 128.566C373.38 124.866 371.821 121.334 370.073 117.765C338.159 52.3557 273.231 11.7309 200.633 11.7309C174.72 11.7309 149.564 16.9382 125.843 27.2146C124.991 27.5715 124.176 27.9211 123.396 28.3435L123.01 28.5329C80.5647 47.6363 46.8879 81.6336 28.1777 124.254C27.5295 125.623 26.976 126.942 26.4225 128.274C26.3205 128.609 26.204 128.901 26.0947 129.141C24.325 133.431 22.6717 138.034 20.8946 143.627L20.749 144.1C20.3848 145.295 20.0207 146.467 19.6857 147.698C19.1467 149.446 18.7461 150.997 18.3383 152.541L18.2582 152.84C18.2145 153.088 18.1562 153.364 18.0907 153.619C17.4425 156.03 16.9035 158.375 16.3573 160.837C15.913 162.832 15.5489 164.872 15.1774 166.947L14.9225 168.375C14.6312 170.21 14.318 172.169 14.0413 174.165L13.9612 174.616C13.9539 174.704 13.9393 174.937 13.9175 175.177L13.8811 175.541C13.6334 177.267 13.4514 179.015 13.262 180.749L13.0217 182.948C12.9998 183.363 12.9561 183.764 12.9051 184.128V184.099Z" fill="url(#paint0_linear_2716_6241)"/>
<defs>
<linearGradient id="paint0_linear_2716_6241" x1="200.611" y1="402.401" x2="200.611" y2="0.0488281" gradientUnits="userSpaceOnUse">
<stop stop-color="white" stop-opacity="0.2"/>
<stop offset="0.06" stop-color="white" stop-opacity="0.0961"/>
<stop offset="0.18" stop-color="white" stop-opacity="0.2401"/>
<stop offset="0.31" stop-color="white" stop-opacity="0.4225"/>
<stop offset="0.43" stop-color="white" stop-opacity="0.6084"/>
<stop offset="0.56" stop-color="white" stop-opacity="0.7569"/>
<stop offset="0.69" stop-color="white" stop-opacity="0.8836"/>
<stop offset="0.84" stop-color="white" stop-opacity="0.9801"/>
<stop offset="1" stop-color="white"/>
</linearGradient>
</defs>
</svg>
