<svg width="401" height="403" viewBox="0 0 401 403" fill="none" xmlns="http://www.w3.org/2000/svg">
<mask id="mask0_2716_6243" style="mask-type:luminance" maskUnits="userSpaceOnUse" x="5" y="4" width="392" height="394">
<path d="M396.103 199.057V200.063C396.103 201.752 396.103 203.355 395.979 205.088V206.013C395.979 207.579 395.979 209.108 395.863 210.674C395.061 229.473 391.609 247.586 385.855 264.578C385.739 265.059 385.579 265.459 385.418 265.947C384.938 267.353 384.457 268.795 383.932 270.208C383.124 272.459 382.243 274.709 381.361 276.872C352.039 347.812 282.177 397.827 200.633 397.827C173.838 397.827 148.332 392.444 125.076 382.685C123.386 381.963 121.74 381.235 120.094 380.514C72.7307 359.065 35.4183 319.21 17.2974 270.208C17.244 270.179 17.2173 270.152 17.2173 270.128C16.7366 268.722 16.2122 267.353 15.8116 265.947C15.6514 265.467 15.5348 265.066 15.3746 264.578C9.14735 246.217 5.57124 226.494 5.20707 206.013V205.088C5.12695 203.362 5.12695 201.76 5.12695 200.063V199.057C5.12695 198.497 5.12695 197.856 5.20707 197.295V195.926C5.28719 194.396 5.33089 192.83 5.411 191.308C5.49112 188.693 5.68777 186.122 5.85529 183.595V183.231C5.9354 182.867 5.9354 182.466 5.97182 182.146C6.21217 179.575 6.49622 177.004 6.8531 174.476C6.88952 173.952 6.96963 173.471 7.05703 173.107C7.29738 171.06 7.61785 169.05 7.98202 167.04C8.4263 164.352 8.90699 161.781 9.43139 159.247C9.99221 156.676 10.5967 154.185 11.2377 151.694C11.2814 151.366 11.3979 151.046 11.4416 150.813C11.8786 149.087 12.3666 147.397 12.8473 145.751C13.2843 144.265 13.6921 142.816 14.1291 141.417C15.0541 138.446 16.0592 135.467 17.1007 132.663C17.9019 130.529 18.7104 128.366 19.5916 126.232C19.6353 126.115 19.6718 125.991 19.7519 125.867C20.3564 124.338 20.9973 122.816 21.6819 121.33C41.041 77.2657 76.2777 41.7086 120.101 21.9853C121.063 21.4609 122.112 21.0239 123.073 20.6161C146.853 10.2956 173.08 4.59277 200.64 4.59277C277.851 4.59277 344.726 49.4216 376.467 114.535C378.273 118.234 379.919 122.007 381.449 125.86C381.493 125.984 381.565 126.1 381.609 126.224C382.454 128.358 383.299 130.485 384.064 132.655C386.431 138.963 388.404 145.43 390.087 152.058C390.364 153.26 390.684 154.425 390.932 155.671C391.777 159.247 392.534 162.779 393.139 166.399C393.299 167.601 393.539 168.81 393.736 170.055C394.064 171.862 394.26 173.748 394.501 175.598C394.821 177.768 394.981 179.859 395.222 181.985C395.462 184.797 395.659 187.688 395.819 190.456C395.943 192.306 395.979 194.068 395.979 195.926V197.295C396.103 197.936 396.103 198.46 396.103 199.057Z" fill="white"/>
</mask>
<g mask="url(#mask0_2716_6243)">
<mask id="mask1_2716_6243" style="mask-type:luminance" maskUnits="userSpaceOnUse" x="-86" y="-57" width="884" height="516">
<path d="M797.143 -56.3838H-85.4648V458.474H797.143V-56.3838Z" fill="white"/>
</mask>
<g mask="url(#mask1_2716_6243)">
<path d="M797.143 -56.3838H-85.4648V458.474H797.143V-56.3838Z" fill="white"/>
<path d="M-85.4648 401.278H797.143V344.06H-85.4648V401.278ZM-85.4648 286.857H797.143V229.64H-85.4648V286.857ZM200.653 172.444H797.143V115.226H200.653V172.444ZM200.653 58.0299H797.143V0.833984H200.653V58.0299Z" fill="#3777BC"/>
<mask id="mask2_2716_6243" style="mask-type:luminance" maskUnits="userSpaceOnUse" x="-86" y="-57" width="884" height="516">
<path d="M797.143 -56.3838H-85.4648V458.474H797.143V-56.3838Z" fill="white"/>
</mask>
<g mask="url(#mask2_2716_6243)">
<path fill-rule="evenodd" clip-rule="evenodd" d="M113.936 129.771L115.283 152.714C94.147 168.002 107.191 176.989 91.8965 181.935C102.239 171.592 88.7501 171.592 100.447 148.206" fill="#E8BF22"/>
<path d="M114.389 129.771L115.737 152.714H114.841L113.042 129.771H114.389ZM115.737 152.707V153.158L115.285 152.707H115.737ZM115.737 153.158C104.499 161.25 103.151 167.543 101.797 172.037H100.449C101.797 167.091 103.603 160.347 114.841 152.248L115.737 153.158ZM101.797 172.037C100.449 176.982 99.5461 180.128 92.3502 182.379L91.8986 181.483C98.6502 179.233 99.5461 176.086 100.449 172.044H101.797V172.037ZM92.3502 182.379L90.0996 183.275L91.447 181.927H91.8986L92.3502 182.379ZM91.447 181.927C95.9481 176.982 95.9481 174.287 95.0523 170.689H96.3997C96.8512 174.287 97.2955 177.434 92.3502 182.379L91.4543 181.927H91.447ZM95.0523 170.689C94.6007 166.195 93.7049 160.347 99.9976 148.198L100.893 148.65C95.0523 160.798 95.4965 166.195 96.3997 170.689H95.0523Z" fill="#292C2F"/>
<path d="M106.74 147.302C101.343 156.756 99.9883 163.945 99.544 169.793L98.2038 169.341C99.0997 163.945 100.447 156.304 105.844 146.851L106.74 147.302ZM99.544 169.793C98.6481 175.634 97.745 180.135 92.348 182.379L91.8965 181.483C96.8491 179.232 97.2934 175.19 98.2038 169.341L99.544 169.793Z" fill="#292C2F"/>
<path fill-rule="evenodd" clip-rule="evenodd" d="M113.938 129.771L112.139 106.392C133.282 91.1038 120.238 82.1016 135.525 77.1562C125.627 87.9574 138.672 87.9574 126.982 110.885" fill="#E8BF22"/>
<path d="M113.04 129.771L111.693 106.843L112.589 106.392L114.388 129.771H113.04ZM111.686 106.843V106.392H112.137L111.686 106.843ZM111.686 106.392C122.931 98.3001 124.73 92.0073 125.626 87.0619L126.981 87.5135C125.626 92.4589 123.827 98.7516 112.581 106.843L111.686 106.392ZM125.633 87.0619C126.988 82.5535 127.884 78.9556 135.08 76.7123L135.531 77.6082C128.787 79.866 127.891 83.0124 126.988 87.5062L125.633 87.0546V87.0619ZM135.08 76.7123L137.33 76.2607L135.983 77.6082L135.531 77.1566L135.08 76.705V76.7123ZM135.975 77.6082C131.482 82.5535 131.482 84.8114 132.377 88.4093L131.03 88.8609C130.578 84.8114 130.134 82.1165 135.08 76.7123L135.975 77.6082ZM132.377 88.4093C132.829 92.9031 133.725 98.7516 127.432 111.337L126.536 110.886C132.377 98.7444 131.933 92.9031 131.03 88.8536L132.377 88.402V88.4093Z" fill="#292C2F"/>
<path d="M120.689 111.789C126.086 102.35 127.441 95.1537 128.337 89.7568H129.233C128.337 95.598 126.982 102.794 121.585 112.233L120.689 111.782V111.789ZM128.337 89.7568C129.233 83.464 129.684 79.4072 135.081 76.7051L135.533 77.6009C130.587 79.8588 130.136 83.9083 129.24 89.7495H128.344L128.337 89.7568Z" fill="#292C2F"/>
<path fill-rule="evenodd" clip-rule="evenodd" d="M113.938 129.771L90.5517 131.119C75.264 109.99 66.2618 123.027 61.3164 107.739C72.1103 118.082 71.6587 105.044 95.0528 116.283" fill="#E8BF22"/>
<path d="M113.936 130.215L90.5495 132.014V130.667L113.492 129.319L113.944 130.215H113.936ZM90.5495 132.014L90.0979 131.563L90.5495 131.111V132.007V132.014ZM90.0979 131.57C82.4577 120.332 76.1576 118.984 71.2122 117.637V116.741C76.6092 118.089 82.9093 119.436 91.001 131.126L90.1052 131.577L90.0979 131.57ZM71.2122 117.63C66.7112 116.282 63.1132 115.379 60.8699 108.191L61.7658 107.739C64.0163 114.483 67.1627 115.379 71.2122 116.734V117.63ZM60.8627 108.191L59.9668 106.392L61.7658 107.739H61.3142L60.8627 108.191ZM61.7658 107.739C66.7112 112.233 68.9617 111.789 72.5597 111.337L73.0112 112.233C68.9617 112.684 66.2596 113.129 60.8699 108.183L61.7658 107.732V107.739ZM72.5597 111.337C77.0535 110.441 82.902 109.538 95.5021 115.831L94.6063 116.727C82.465 110.885 77.0608 111.781 73.0185 112.233L72.5669 111.337H72.5597Z" fill="#292C2F"/>
<path d="M95.947 123.027C86.5006 117.186 79.3047 116.283 73.9077 115.387V114.039C79.7489 114.935 86.9521 116.29 96.3986 122.131L95.947 123.027ZM73.9077 115.387C67.6076 114.491 63.5654 113.588 60.8633 108.191L61.7591 107.739C64.0097 112.685 68.0519 113.58 73.9004 114.032V115.379L73.9077 115.387Z" fill="#292C2F"/>
<path fill-rule="evenodd" clip-rule="evenodd" d="M113.938 129.771L136.88 127.972C152.175 149.101 161.17 136.515 166.115 151.358C155.321 141.46 155.773 154.505 132.379 142.808" fill="#E8BF22"/>
<path d="M113.486 129.319L136.873 127.521V128.416L113.93 130.215L113.479 129.319H113.486ZM136.88 127.521H137.331L136.88 127.972V127.521ZM137.324 127.521C144.972 138.759 151.272 140.558 156.217 141.905V142.801C150.82 141.454 144.52 139.655 136.428 128.416L137.324 127.521ZM156.217 141.905C160.711 142.801 164.316 143.704 166.559 151.359H165.664C163.413 144.607 160.267 143.704 156.217 142.808V141.912V141.905ZM166.567 151.359L167.462 153.158L165.664 151.81L166.115 151.359H166.567ZM165.664 151.81C161.17 147.302 158.468 147.754 154.87 148.205L154.418 147.309C158.468 146.413 161.17 145.962 166.559 150.907L165.664 151.818V151.81ZM154.87 148.198C150.376 148.649 144.527 149.545 132.379 143.252L132.83 142.357C144.972 148.649 150.376 147.754 154.418 147.302L154.87 148.198Z" fill="#292C2F"/>
<path d="M131.483 136.516C140.929 141.913 148.125 143.26 153.974 144.156L153.522 145.052C148.125 144.156 140.478 143.253 131.031 137.411L131.483 136.516ZM153.974 144.156C159.815 145.052 163.872 145.503 166.567 151.352L165.671 151.811C163.42 146.406 159.371 145.955 153.529 145.059L153.981 144.163L153.974 144.156Z" fill="#292C2F"/>
<path fill-rule="evenodd" clip-rule="evenodd" d="M113.937 129.771L98.6493 147.302C72.5604 142.809 75.2625 158.555 61.3223 151.359C76.1657 150.9 66.7192 141.905 91.0018 133.362" fill="#E8BF22"/>
<path d="M113.937 129.771L99.0936 147.302L98.1977 146.85L113.485 129.319L113.937 129.771ZM99.0936 147.302L98.642 147.753V147.302H99.0936ZM98.6493 147.753C85.1533 145.503 79.3048 148.649 75.2626 151.359L74.3667 150.463C78.8605 147.753 84.709 144.155 98.6566 146.406V147.753H98.6493ZM75.2553 151.359C71.2057 153.609 68.0594 155.408 60.8634 151.81L61.315 150.9C68.0594 154.061 70.7615 152.706 74.3594 150.463L75.2553 151.359ZM60.8634 151.81L59.0645 150.9H61.315V151.359L60.8634 151.81ZM61.315 150.9C68.0594 150.463 69.414 148.649 71.6573 145.503L72.5532 146.399C70.3026 149.545 68.5036 151.803 61.3077 151.803V150.893L61.315 150.9ZM71.6573 145.503C74.3521 141.905 77.9501 137.411 90.9945 132.917L91.4461 133.813C78.4017 138.307 74.8037 142.808 72.5604 146.399L71.6646 145.503H71.6573Z" fill="#292C2F"/>
<path d="M96.4002 137.411C85.6063 140.106 79.7578 144.607 75.2567 147.754L74.8051 146.858C79.2989 143.712 85.1474 139.218 95.9486 136.516L96.4002 137.411ZM75.2567 147.754C70.3113 151.359 67.1576 154.061 61.3164 151.811V150.9C66.7133 152.706 69.8597 150.463 74.8051 146.851L75.2567 147.746V147.754Z" fill="#292C2F"/>
<path fill-rule="evenodd" clip-rule="evenodd" d="M113.938 129.771L128.781 112.24C154.87 116.289 152.168 100.55 166.108 107.746C151.265 108.197 160.711 117.637 136.421 125.728" fill="#E8BF22"/>
<path d="M113.486 129.319L128.329 111.788L129.225 112.684L113.93 129.771L113.479 129.319H113.486ZM128.336 111.788H128.788V112.24L128.336 111.788ZM128.781 111.788C142.277 114.039 148.118 110.441 152.168 108.19L153.063 109.086C148.57 111.781 142.721 114.927 128.773 112.684V111.788H128.781ZM152.175 108.19C156.669 105.496 159.371 104.141 166.567 107.295L166.115 108.19C159.363 105.044 156.669 106.843 153.071 109.086L152.175 108.19ZM166.567 107.287L168.366 108.183L166.115 108.635V107.739L166.567 107.287ZM166.115 108.642C159.363 108.642 158.016 110.892 155.773 113.587L154.877 113.136C157.572 109.989 158.926 107.739 166.122 107.295V108.642H166.115ZM155.773 113.587C153.078 117.185 149.48 121.679 136.428 126.173L135.977 125.277C149.028 121.228 152.619 116.289 154.87 113.136L155.765 113.587H155.773Z" fill="#292C2F"/>
<path d="M131.031 121.679C141.825 119.428 147.674 114.935 152.175 111.337L152.626 112.232C148.125 115.83 142.284 120.324 131.483 123.019L131.031 121.672V121.679ZM152.175 111.337C157.12 107.739 160.725 105.495 166.115 107.287V108.183C160.718 106.384 157.564 109.079 152.619 112.232L152.167 111.337H152.175Z" fill="#292C2F"/>
<path fill-rule="evenodd" clip-rule="evenodd" d="M113.938 129.771L96.3995 114.483C100.449 88.409 84.7025 91.1038 91.8985 77.1562C92.35 91.9997 101.796 82.5605 109.896 106.836" fill="#E8BF22"/>
<path d="M113.486 130.215L95.9474 114.928L96.8432 114.032L113.93 129.32L113.478 130.215H113.486ZM95.9474 114.935V114.483H96.3989L95.9474 114.935ZM95.9474 114.483C97.7463 100.995 94.5999 95.1535 92.3494 91.104L93.2452 90.6524C95.4958 95.1462 99.0865 100.543 96.8432 114.476H95.9474V114.483ZM92.3494 91.104C89.6473 87.0544 87.8483 83.908 91.4463 77.1564L92.3494 77.608C89.1957 83.9153 90.9947 86.6101 93.2452 90.6597L92.3494 91.1112V91.104ZM91.4463 77.1564L92.3494 75.3574V77.1564H91.4463ZM92.3494 77.1564C92.801 83.908 94.5999 85.2627 97.7463 87.506L97.2948 88.4018C94.1484 86.1513 91.8978 84.3523 91.4463 77.1491H92.3494V77.1564ZM97.7463 87.5133C101.344 90.2081 105.845 93.8061 110.339 106.843L109.443 107.295C104.95 94.2576 100.448 91.1112 97.3021 88.4164L97.7536 87.5206L97.7463 87.5133Z" fill="#292C2F"/>
<path d="M105.845 112.233C103.595 101.446 99.0938 95.5976 95.5032 91.1038L96.399 90.6522C99.997 95.1461 104.498 100.995 107.193 112.233H105.845ZM95.4959 91.1038C91.8906 86.1584 89.6474 83.012 91.4464 77.1562H92.3495C90.5432 82.5532 92.8011 85.7069 96.399 90.6522L95.5032 91.1038H95.4959Z" fill="#292C2F"/>
<path fill-rule="evenodd" clip-rule="evenodd" d="M113.938 129.771L131.031 144.608C126.982 170.696 142.728 167.994 135.525 181.935C135.074 167.55 125.627 176.989 117.535 152.255" fill="#E8BF22"/>
<path d="M113.936 129.319L131.481 144.155L131.03 145.051L113.484 130.215L113.936 129.319ZM131.481 144.155L131.933 144.607L131.481 145.059L131.03 144.607L131.481 144.155ZM131.481 145.051C129.682 158.547 132.829 163.944 135.079 168.438L134.184 168.89C131.933 164.396 128.342 158.547 130.586 144.6L131.481 145.051ZM135.079 168.445C137.774 172.495 139.581 175.641 135.975 182.386L135.079 181.934C138.226 175.641 136.427 172.495 134.184 168.897L135.079 168.445ZM135.975 182.378L135.079 184.177V181.927H135.531L135.983 182.378H135.975ZM135.079 181.927C134.628 175.634 132.829 173.835 129.682 171.584L130.134 171.133C133.28 173.383 135.531 174.731 135.975 181.919H135.079V181.927ZM129.682 171.592C126.085 169.341 121.583 165.751 117.09 152.247H117.985C122.479 164.847 126.98 168.445 130.127 171.14L129.675 171.592H129.682Z" fill="#292C2F"/>
<path d="M121.585 146.851C124.287 157.652 128.337 163.493 131.928 167.994L131.032 168.89C127.434 163.945 122.933 158.103 120.689 147.302L121.585 146.851ZM131.935 167.994C135.533 172.939 137.776 176.537 135.984 182.379L135.089 181.927C136.888 176.53 134.637 173.384 131.039 168.89L131.935 167.994Z" fill="#292C2F"/>
<path fill-rule="evenodd" clip-rule="evenodd" d="M113.936 129.771H123.834L113.936 186.428L103.594 129.771H113.936V186.428Z" fill="#E8BF22"/>
<path d="M113.937 129.319H123.835V130.215H113.937V129.319ZM123.835 129.319H124.731V129.771H123.835V129.319ZM124.731 129.771L114.389 186.428H113.042L123.384 129.771H124.731ZM114.389 186.428L113.937 189.123L113.042 186.428H114.389ZM113.042 186.428L102.699 129.771H104.047L114.389 186.428H113.042ZM102.699 129.319H103.595V129.771H102.699V129.319ZM103.595 129.319H113.937V130.215H103.595V129.319ZM113.937 129.319H114.389V129.771H113.937V129.319ZM114.389 186.428H113.042V129.771H114.389V186.428Z" fill="#292C2F"/>
<path fill-rule="evenodd" clip-rule="evenodd" d="M113.936 129.772H103.594L113.936 72.6631L123.834 129.772H113.936V72.6631Z" fill="#E8BF22"/>
<path d="M113.937 130.215H103.595V129.32H113.937V130.215ZM103.595 130.215H102.699V129.764H103.595V130.215ZM102.699 129.771L113.042 72.6626L114.389 73.1142L104.047 129.771H102.699ZM113.042 72.6626L113.937 69.9678L114.389 72.6626H113.042ZM114.389 72.6626L124.731 129.771H123.384L113.042 73.1142L114.389 72.6626ZM124.731 130.215H123.835V129.764H124.731V130.215ZM123.835 130.215H113.937V129.32H123.835V130.215ZM113.937 130.215H113.042V129.764H113.937V130.215ZM113.042 72.6626H114.389V129.771H113.042V72.6626Z" fill="#292C2F"/>
<path fill-rule="evenodd" clip-rule="evenodd" d="M113.936 129.771V140.106L56.8125 129.771L113.936 119.429V129.771H56.8125Z" fill="#E8BF22"/>
<path d="M114.389 140.106H113.041V129.764H114.389V140.106ZM114.389 140.106V140.557H113.493L113.944 140.106H114.396H114.389ZM113.485 140.557L56.814 130.215L57.2655 129.319L113.93 139.662L113.478 140.557H113.485ZM56.814 130.215L54.1191 129.764L56.814 129.312V130.208V130.215ZM56.814 129.319L113.485 118.977L113.937 119.873L57.2728 130.215L56.8213 129.319H56.814ZM113.485 118.977L114.381 118.525V119.421H113.93L113.478 118.97L113.485 118.977ZM114.389 129.771H113.041V119.429H114.389V129.771ZM114.389 130.215H113.937V129.764H114.389V130.215ZM113.937 130.215H56.814V129.319H113.937V130.215Z" fill="#292C2F"/>
<path fill-rule="evenodd" clip-rule="evenodd" d="M113.938 129.771V119.429L170.609 129.771L113.938 140.106V129.771H170.609Z" fill="#E8BF22"/>
<path d="M113.041 119.429H114.388V129.771H113.041V119.429ZM113.041 119.429V118.533L113.937 118.985V119.436H113.041V119.429ZM113.937 118.977L170.608 129.32L170.157 130.216L113.485 119.873L113.937 118.977ZM170.608 129.32L173.31 129.771L170.608 130.223V129.327V129.32ZM170.608 130.216L113.937 140.558L113.485 139.662L170.157 129.32L170.608 130.216ZM113.937 140.558H113.041V140.106H113.937V140.558ZM113.041 129.771H114.388V140.114H113.041V129.771ZM113.041 129.32H113.937V129.771H113.041V129.32ZM113.937 129.32H170.608V130.216H113.937V129.32Z" fill="#292C2F"/>
<path fill-rule="evenodd" clip-rule="evenodd" d="M113.938 129.772L121.134 136.96L73.457 169.793L106.298 122.124L113.938 129.772L73.457 169.793Z" fill="#E8BF22"/>
<path d="M113.938 129.319L121.585 136.515L120.69 137.411L113.494 130.215L113.945 129.319H113.938ZM121.585 136.515L122.037 136.967L121.141 137.418V136.967L121.593 136.515H121.585ZM121.134 137.411L73.9088 170.237L73.4572 169.341L120.682 136.515L121.134 137.411ZM73.9088 170.244L71.6582 172.043L73.0056 169.348L73.4572 169.8L73.9088 170.252V170.244ZM73.0129 169.341L105.846 122.123L106.742 122.575L73.9088 170.237L73.0129 169.341ZM105.846 122.123L106.298 121.672L106.749 122.123H105.853H105.846ZM106.742 122.123L113.938 129.319L113.486 130.215L105.846 122.575L106.742 122.123ZM113.938 129.319L114.389 129.771L113.938 130.222V129.327V129.319ZM113.938 130.215L73.9088 170.237L73.4572 169.341L113.486 129.319L113.938 130.215Z" fill="#292C2F"/>
<path fill-rule="evenodd" clip-rule="evenodd" d="M113.937 129.771L106.297 122.123L153.973 89.3047L121.133 136.959L113.937 129.771L153.973 89.3047Z" fill="#E8BF22"/>
<path d="M113.486 130.216L105.846 122.576L106.742 122.124L113.937 129.32L113.486 130.216ZM105.846 122.576V122.124H106.297L105.846 122.576ZM106.297 122.124L153.522 88.8538L153.974 89.7496L106.749 122.568L106.297 122.117V122.124ZM153.522 88.8611L155.773 87.5137L154.425 89.7642L153.974 89.3126L153.522 88.8611ZM154.418 89.7569L121.585 137.412L120.689 136.516L153.522 89.3126L154.418 89.7642V89.7569ZM121.585 137.412L121.133 137.863L120.682 137.412L121.133 136.96L121.585 137.412ZM120.689 137.412L113.493 130.216L113.945 129.32L121.592 136.516L120.696 137.412H120.689ZM113.486 130.216L113.034 129.764L113.486 129.313L113.937 129.764L113.486 130.216ZM113.486 129.32L153.522 89.3054L154.418 89.7569L113.937 130.216L113.486 129.32Z" fill="#292C2F"/>
<path fill-rule="evenodd" clip-rule="evenodd" d="M113.938 129.771L106.298 136.959L73.457 89.3047L121.134 122.123L113.938 129.771L73.457 89.3047Z" fill="#E8BF22"/>
<path d="M113.936 130.215L106.741 137.411L105.845 136.515L113.485 129.319L113.936 130.215ZM106.741 137.411L106.289 137.863L105.837 137.411L106.289 136.96L106.741 137.411ZM105.845 137.411L73.0115 89.7564L73.9073 89.3048L106.741 136.508L105.845 137.404V137.411ZM73.0115 89.7564L71.6641 87.5059L73.9146 88.8533L73.463 89.3048L73.0115 89.7564ZM73.9073 88.8606L121.132 122.131L120.681 122.582L73.4558 89.7637L73.9073 88.8678V88.8606ZM121.132 122.123H122.028L121.577 122.575L121.125 122.123H121.132ZM121.584 122.575L113.936 130.215L113.485 129.319L120.681 122.123L121.577 122.575H121.584ZM113.936 130.215H113.485L113.936 129.764V130.215ZM113.485 130.215L73.4558 89.7564L73.9073 89.3048L113.936 129.319L113.485 130.215Z" fill="#292C2F"/>
<path fill-rule="evenodd" clip-rule="evenodd" d="M113.937 129.772L121.133 122.124L153.973 169.793L106.297 136.96L113.937 129.772L153.973 169.793Z" fill="#E8BF22"/>
<path d="M113.486 129.319L120.682 122.123L121.578 122.575L113.93 130.215L113.479 129.319H113.486ZM120.689 122.123L121.141 121.672L121.592 122.123H120.696H120.689ZM121.585 122.123L154.418 169.341L153.522 170.237L120.689 122.575L121.585 122.123ZM154.418 169.341L155.766 172.036L153.515 170.237L153.967 169.785L154.418 169.334V169.341ZM153.522 170.244L106.297 137.418L106.749 136.523L153.974 169.348L153.522 170.244ZM106.297 137.411L105.846 136.96V136.508L106.297 136.96V137.411ZM105.846 136.515L113.486 129.319L113.937 130.215L106.742 137.411L105.846 136.515ZM113.486 129.319L113.937 128.868V129.764L113.486 129.312V129.319ZM113.937 129.319L154.418 169.341L153.522 170.237L113.486 130.215L113.937 129.319Z" fill="#292C2F"/>
<path fill-rule="evenodd" clip-rule="evenodd" d="M132.83 129.771C132.83 118.984 124.279 110.893 113.937 110.893C103.595 110.893 94.5996 118.984 94.5996 129.771C94.5996 140.558 103.15 148.649 113.937 148.649C124.723 148.649 132.83 140.106 132.83 129.771Z" fill="#E8BF22"/>
<path d="M131.934 129.772C131.934 124.375 130.135 119.881 126.537 116.735L127.433 115.839C131.031 119.437 133.274 124.382 133.274 129.772H131.927H131.934ZM126.537 116.735C123.384 113.137 118.89 111.338 113.937 111.338V109.99C118.89 109.99 123.835 112.241 127.433 115.831L126.537 116.727V116.735ZM113.937 111.338C108.54 111.338 104.046 113.137 100.893 116.735L99.9969 115.839C103.602 112.241 108.548 109.998 113.937 109.998V111.345V111.338ZM100.893 116.735C97.2948 119.881 95.4959 124.375 95.4959 129.772H94.1484C94.1484 124.375 96.399 119.429 99.9897 115.839L100.886 116.735H100.893ZM95.4959 129.772C95.4959 134.717 97.2948 139.211 100.893 142.809L99.9969 143.26C96.399 139.662 94.1557 135.169 94.1557 129.772H95.5031H95.4959ZM100.893 142.809C104.046 145.955 108.54 148.206 113.937 148.206V149.102C108.54 149.102 103.595 146.851 99.9969 143.26L100.893 142.809ZM113.937 148.199C118.89 148.199 123.384 145.948 126.537 142.802L127.433 143.253C123.828 146.851 118.883 149.094 113.937 149.094V148.199ZM126.537 142.809C130.135 139.211 131.934 134.717 131.934 129.772H133.282C133.282 135.169 131.031 139.662 127.441 143.26L126.545 142.809H126.537Z" fill="#292C2F"/>
<path fill-rule="evenodd" clip-rule="evenodd" d="M127.433 122.124C126.537 123.471 125.627 121.228 121.585 121.228C117.091 121.228 116.639 123.478 115.736 123.027C115.284 122.575 119.341 119.429 120.689 119.429C122.036 118.977 126.086 120.325 127.44 122.124" fill="#292C2F"/>
<path fill-rule="evenodd" clip-rule="evenodd" d="M122.487 123.479C123.834 124.826 122.939 127.076 121.591 127.076C120.244 127.076 117.993 124.826 119.341 123.479" fill="#292C2F"/>
<path fill-rule="evenodd" clip-rule="evenodd" d="M117.092 125.27C117.092 123.019 118.891 122.575 121.586 122.575C124.28 122.575 125.635 124.826 126.538 125.27C125.635 125.27 124.288 123.471 121.586 123.471C118.884 123.471 118.891 123.471 117.092 125.27Z" fill="#292C2F"/>
<path fill-rule="evenodd" clip-rule="evenodd" d="M117.543 125.721C117.994 124.826 118.89 126.617 121.141 126.617C122.94 126.617 123.836 126.166 125.19 125.27C126.093 124.374 123.391 127.52 121.592 127.52C119.793 127.52 117.099 126.173 117.543 125.721Z" fill="#292C2F"/>
<path fill-rule="evenodd" clip-rule="evenodd" d="M123.383 126.625C125.633 125.729 124.279 123.93 123.383 123.479C123.834 123.93 125.182 125.729 123.383 126.625Z" fill="#292C2F"/>
<path fill-rule="evenodd" clip-rule="evenodd" d="M113.937 136.96C114.833 136.96 115.284 136.509 116.639 136.509C117.994 136.509 121.133 138.759 122.932 137.856C118.882 139.655 120.681 138.308 113.937 138.308H113.041" fill="#292C2F"/>
<path fill-rule="evenodd" clip-rule="evenodd" d="M123.836 139.662C122.941 138.315 123.385 138.766 121.586 136.516C123.385 137.863 123.385 138.315 123.836 139.662Z" fill="#292C2F"/>
<path fill-rule="evenodd" clip-rule="evenodd" d="M113.937 141.009C117.986 141.009 117.542 140.113 122.932 137.862C118.882 138.314 117.986 139.661 113.937 139.661H113.041" fill="#292C2F"/>
<path fill-rule="evenodd" clip-rule="evenodd" d="M113.938 134.716C114.833 134.716 115.285 133.82 116.64 133.82C117.994 133.82 119.786 134.272 120.689 135.168C121.141 135.168 120.238 133.82 118.89 133.82C117.543 133.369 117.994 131.125 116.64 130.674C116.64 131.57 117.091 131.57 117.091 132.473C117.091 133.376 115.736 133.369 115.285 132.473C115.736 133.82 114.389 133.82 113.938 133.82" fill="#292C2F"/>
<path fill-rule="evenodd" clip-rule="evenodd" d="M99.9975 122.124C100.893 123.471 101.797 121.228 105.846 121.228C110.34 121.228 110.791 123.478 111.687 123.027C112.139 122.575 108.089 119.429 106.742 119.429C105.394 118.977 101.345 120.325 99.9902 122.124" fill="#292C2F"/>
<path fill-rule="evenodd" clip-rule="evenodd" d="M104.943 123.479C103.595 124.826 104.491 127.076 105.838 127.076C107.186 127.076 109.436 124.826 108.089 123.479" fill="#292C2F"/>
<path fill-rule="evenodd" clip-rule="evenodd" d="M110.339 125.27C110.339 123.019 108.54 122.575 105.845 122.575C103.15 122.575 101.796 124.826 100.893 125.27C102.24 125.27 103.143 123.471 105.845 123.471C108.547 123.471 108.54 123.471 110.339 125.27Z" fill="#292C2F"/>
<path fill-rule="evenodd" clip-rule="evenodd" d="M109.887 125.721C109.436 124.826 108.54 126.617 106.289 126.617C104.49 126.617 103.594 126.166 102.24 125.27C101.344 124.374 104.046 127.52 105.845 127.52C108.095 127.52 110.339 126.173 109.894 125.721" fill="#292C2F"/>
<path fill-rule="evenodd" clip-rule="evenodd" d="M104.047 126.625C101.796 125.729 103.151 123.93 104.047 123.479C103.595 123.93 102.248 125.729 104.047 126.625Z" fill="#292C2F"/>
<path fill-rule="evenodd" clip-rule="evenodd" d="M113.937 136.96C112.59 136.96 112.138 136.509 110.791 136.509C109.443 136.509 106.297 138.759 104.498 137.856C108.548 139.655 106.749 138.308 113.937 138.308H114.389" fill="#292C2F"/>
<path fill-rule="evenodd" clip-rule="evenodd" d="M103.594 139.662C104.49 138.315 104.49 138.766 105.844 136.516C104.497 137.863 104.045 138.315 103.594 139.662Z" fill="#292C2F"/>
<path fill-rule="evenodd" clip-rule="evenodd" d="M113.937 141.009C109.443 141.009 110.339 140.113 104.498 137.862C108.548 138.314 109.443 139.661 113.937 139.661H114.389" fill="#292C2F"/>
<path fill-rule="evenodd" clip-rule="evenodd" d="M113.936 134.716C112.589 134.716 112.137 133.82 110.79 133.82C109.443 133.82 107.644 134.272 106.741 135.168C106.289 135.168 107.192 133.82 108.54 133.82C109.887 133.369 109.435 131.125 110.79 130.674C110.79 131.57 110.339 131.57 110.339 132.473C110.339 133.376 111.686 133.369 112.137 132.473C111.686 133.82 113.033 133.82 113.936 133.82" fill="#292C2F"/>
<path fill-rule="evenodd" clip-rule="evenodd" d="M113.938 142.809C113.042 142.809 110.791 143.26 113.938 143.26C116.64 143.26 114.389 142.809 113.938 142.809Z" fill="#292C2F"/>
</g>
</g>
</g>
<path d="M200.631 402.393C173.784 402.393 147.768 397.178 123.304 386.894C121.621 386.194 119.873 385.444 118.169 384.658C69.7785 362.779 31.41 321.606 12.9468 271.722L12.5171 270.499C12.1165 269.37 11.7232 268.241 11.3954 267.068C11.2352 266.653 11.1114 266.311 11.0094 265.976C4.49086 246.682 1.00943 226.544 0.645266 206.107V205.087C0.601566 203.507 0.601562 201.817 0.601562 200.098V199.217C0.601562 198.489 0.601565 197.789 0.637981 197.163L0.718098 193.558C0.747232 192.779 0.776365 191.992 0.798215 191.213C0.922032 188.365 1.08955 185.626 1.29348 182.939L1.65765 179.552C1.8543 177.717 2.05095 175.867 2.30586 174.039C2.35685 173.427 2.42239 172.851 2.50979 172.378C2.79384 170.353 3.10703 168.365 3.42749 166.377L3.70426 164.818C4.09756 162.604 4.49086 160.426 4.96428 158.292C5.53966 155.655 6.12232 153.135 6.8288 150.528C6.90164 150.149 6.97447 149.822 7.06916 149.508C7.47702 147.935 7.93587 146.173 8.48212 144.417C8.80987 143.194 9.22501 141.846 9.64745 140.477L9.7567 140.113C11.563 134.425 13.2454 129.705 15.0444 125.306V125.233L15.4814 124.17C16.1587 122.516 16.8361 120.914 17.5571 119.392C37.3313 74.3299 73.0342 38.2629 118.023 17.957C119.094 17.3889 120.194 16.9009 121.257 16.4566C146.377 5.57536 173.1 0.0400391 200.616 0.0400391C277.703 0.0400391 346.647 43.1791 380.536 112.618C382.393 116.42 384.054 120.178 385.612 124.119L385.693 124.294C393.296 142.859 397.972 162.079 399.706 181.672C399.982 184.476 400.194 187.396 400.354 190.222L400.449 192.808C400.478 193.776 400.514 194.731 400.558 195.721V197.17C400.594 197.819 400.602 198.438 400.602 199.137V200.091C400.602 201.81 400.602 203.485 400.565 205.204V205.998C400.565 207.622 400.485 209.166 400.412 210.71C399.545 229.974 396.122 248.445 390.223 265.801C390.092 266.318 389.924 266.828 389.735 267.352C388.468 271.191 387.098 274.883 385.561 278.62C354.498 353.813 281.905 402.4 200.623 402.4L200.631 402.393ZM12.9031 184.082C12.7137 186.566 12.5681 189.093 12.4515 191.613C12.437 192.342 12.4005 193.172 12.3714 194.002L12.2986 196.143V197.556L12.284 197.768C12.2549 198.197 12.2549 198.693 12.2549 199.188V200.106C12.2549 201.737 12.2549 203.325 12.2913 204.956V206.012C12.6336 225.182 15.9257 244.177 22.0874 262.371L22.1893 262.72C22.3787 263.194 22.5171 263.58 22.6263 263.98C22.874 264.869 23.1871 265.75 23.5003 266.631L23.9155 267.819C41.2571 314.665 77.3969 353.441 123.012 374.068C124.622 374.811 126.224 375.495 127.79 376.143C150.849 385.838 175.343 390.746 200.631 390.746C277.178 390.746 345.54 344.993 374.789 274.177C376.217 270.71 377.492 267.28 378.671 263.682L379.087 262.349C384.695 245.954 387.943 228.467 388.759 210.375C388.839 208.773 388.912 207.425 388.912 206.012V205.095C388.948 203.339 388.948 201.737 388.948 200.106V199.151C388.948 198.634 388.948 198.183 388.919 197.702V195.998C388.868 195.226 388.832 194.228 388.803 193.216L388.715 190.812C388.562 188.241 388.373 185.481 388.103 182.771C386.472 164.323 382.087 146.282 375.066 129.079L374.833 128.54C373.369 124.84 371.811 121.307 370.063 117.739C338.147 52.327 273.216 11.7006 200.616 11.7006C174.702 11.7006 149.538 16.9082 125.824 27.185C124.979 27.5419 124.163 27.8915 123.376 28.3139L122.983 28.5033C80.536 47.6074 46.8579 81.5987 28.1471 124.228C27.4989 125.597 26.9453 126.908 26.3918 128.241C26.2898 128.576 26.1733 128.867 26.0641 129.115C24.2942 133.39 22.6409 138.001 20.8638 143.609L20.7691 143.929C20.3831 145.175 20.0043 146.398 19.6547 147.68C19.1085 149.465 18.6933 151.06 18.2782 152.655C18.1908 153.077 18.1252 153.354 18.0524 153.616C17.4115 156.005 16.8725 158.343 16.3335 160.812C15.8965 162.8 15.5324 164.825 15.1609 166.886L14.8987 168.35C14.6074 170.186 14.2942 172.145 14.0174 174.141L13.9373 174.592C13.93 174.68 13.9155 174.905 13.9009 175.146L13.8572 175.524C13.6096 177.272 13.4202 179.042 13.2308 180.805L12.9978 182.932C12.9686 183.354 12.9322 183.747 12.8812 184.111L12.9031 184.082Z" fill="url(#paint0_linear_2716_6243)"/>
<defs>
<linearGradient id="paint0_linear_2716_6243" x1="200.609" y1="402.392" x2="200.609" y2="0.0327484" gradientUnits="userSpaceOnUse">
<stop stop-color="white" stop-opacity="0.2"/>
<stop offset="0.06" stop-color="white" stop-opacity="0.0961"/>
<stop offset="0.18" stop-color="white" stop-opacity="0.2401"/>
<stop offset="0.31" stop-color="white" stop-opacity="0.4225"/>
<stop offset="0.43" stop-color="white" stop-opacity="0.6084"/>
<stop offset="0.56" stop-color="white" stop-opacity="0.7569"/>
<stop offset="0.69" stop-color="white" stop-opacity="0.8836"/>
<stop offset="0.84" stop-color="white" stop-opacity="0.9801"/>
<stop offset="1" stop-color="white"/>
</linearGradient>
</defs>
</svg>
