<svg width="401" height="403" viewBox="0 0 401 403" fill="none" xmlns="http://www.w3.org/2000/svg">
<mask id="mask0_2716_6242" style="mask-type:luminance" maskUnits="userSpaceOnUse" x="4" y="5" width="393" height="393">
<path d="M200.603 397.43C308.822 397.43 396.55 309.701 396.55 201.483C396.55 93.2645 308.822 5.53613 200.603 5.53613C92.3847 5.53613 4.65625 93.2645 4.65625 201.483C4.65625 309.701 92.3847 397.43 200.603 397.43Z" fill="white"/>
</mask>
<g mask="url(#mask0_2716_6242)">
<path d="M515.914 5.53516H-114.701V397.436H515.914V5.53516Z" fill="white"/>
<path d="M515.914 365.521H-114.701V397.436H515.914V365.521Z" fill="#B22234"/>
<path d="M515.914 299.143H-114.701V331.057H515.914V299.143Z" fill="#B22234"/>
<path d="M515.914 237.869H-114.701V269.784H515.914V237.869Z" fill="#B22234"/>
<path d="M515.914 180.427H-114.701V212.342H515.914V180.427Z" fill="#B22234"/>
<path d="M515.914 119.153H-114.701V151.061H515.914V119.153Z" fill="#B22234"/>
<path d="M515.914 59.1543H-114.701V91.0692H515.914V59.1543Z" fill="#B22234"/>
<path d="M515.914 5.53516H-114.701V37.4501H515.914V5.53516Z" fill="#B22234"/>
<path d="M158.484 5.53516H-114.701V212.341H158.484V5.53516Z" fill="#3C3B6E"/>
<path d="M-0.399229 18.5586L2.39751 24.2322L8.67562 25.1426L4.13819 29.5635L5.20154 35.8052L-0.399229 32.8628L-6.00728 35.8052L-4.93665 29.5635L-9.4668 25.1426L-3.20326 24.2322L-0.399229 18.5586Z" fill="white"/>
<path d="M44.173 18.5586L46.9771 24.2322L53.2479 25.1426L48.7105 29.5635L49.7811 35.8052L44.173 32.8628L38.5723 35.8052L39.6429 29.5635L35.1055 25.1426L41.369 24.2322L44.173 18.5586Z" fill="white"/>
<path d="M88.7545 18.5586L91.5513 24.2322L97.8221 25.1426L93.2919 29.5635L94.3553 35.8052L88.7545 32.8628L83.1465 35.8052L84.2171 29.5635L79.6797 25.1426L85.9505 24.2322L88.7545 18.5586Z" fill="white"/>
<path d="M133.327 18.5586L136.131 24.2322L142.402 25.1426L137.864 29.5635L138.928 35.8052L133.327 32.8628L127.726 35.8052L128.789 29.5635L124.252 25.1426L130.523 24.2322L133.327 18.5586Z" fill="white"/>
<path d="M23.8698 38.9941L26.6665 44.675L32.9373 45.5854L28.3999 50.0063L29.4705 56.248L23.8698 53.2983L18.2544 56.248L19.3323 50.0063L14.7949 45.5854L21.0585 44.675L23.8698 38.9941Z" fill="white"/>
<path d="M68.442 38.9941L71.2388 44.675L77.5096 45.5854L72.9795 50.0063L74.0428 56.248L68.442 53.2983L62.8267 56.248L63.9046 50.0063L59.3672 45.5854L65.638 44.675L68.442 38.9941Z" fill="white"/>
<path d="M113.015 38.9941L115.812 44.675L122.09 45.5854L117.552 50.0063L118.623 56.248L113.015 53.2983L107.414 56.248L108.477 50.0063L103.947 45.5854L110.211 44.675L113.015 38.9941Z" fill="white"/>
<path d="M23.8698 79.8682L26.6665 85.5491L32.9373 86.4595L28.3999 90.8803L29.4705 97.122L23.8698 94.1796L18.2544 97.122L19.3323 90.8803L14.7949 86.4595L21.0585 85.5491L23.8698 79.8682Z" fill="white"/>
<path d="M68.442 79.8682L71.2388 85.5491L77.5096 86.4595L72.9795 90.8803L74.0428 97.122L68.442 94.1796L62.8267 97.122L63.9046 90.8803L59.3672 86.4595L65.638 85.5491L68.442 79.8682Z" fill="white"/>
<path d="M113.015 79.8682L115.812 85.5491L122.09 86.4595L117.552 90.8803L118.623 97.122L113.015 94.1796L107.414 97.122L108.477 90.8803L103.947 86.4595L110.211 85.5491L113.015 79.8682Z" fill="white"/>
<path d="M23.8698 120.748L26.6665 126.429L32.9373 127.339L28.3999 131.76L29.4705 138.002L23.8698 135.052L18.2544 138.002L19.3323 131.76L14.7949 127.339L21.0585 126.429L23.8698 120.748Z" fill="white"/>
<path d="M68.442 120.748L71.2388 126.429L77.5096 127.339L72.9795 131.76L74.0428 138.002L68.442 135.052L62.8267 138.002L63.9046 131.76L59.3672 127.339L65.638 126.429L68.442 120.748Z" fill="white"/>
<path d="M113.015 120.748L115.812 126.429L122.09 127.339L117.552 131.76L118.623 138.002L113.015 135.052L107.414 138.002L108.477 131.76L103.947 127.339L110.211 126.429L113.015 120.748Z" fill="white"/>
<path d="M23.8698 161.63L26.6665 167.311L32.9373 168.221L28.3999 172.635L29.4705 178.884L23.8698 175.934L18.2544 178.884L19.3323 172.635L14.7949 168.221L21.0585 167.311L23.8698 161.63Z" fill="white"/>
<path d="M68.442 161.63L71.2388 167.311L77.5096 168.221L72.9795 172.635L74.0428 178.884L68.442 175.934L62.8267 178.884L63.9046 172.635L59.3672 168.221L65.638 167.311L68.442 161.63Z" fill="white"/>
<path d="M113.015 161.63L115.812 167.311L122.09 168.221L117.552 172.635L118.623 178.884L113.015 175.934L107.414 178.884L108.477 172.635L103.947 168.221L110.211 167.311L113.015 161.63Z" fill="white"/>
<path d="M-0.399229 59.4316L2.39751 65.1125L8.67562 66.0229L4.13819 70.4438L5.20154 76.6855L-0.399229 73.7358L-6.00728 76.6855L-4.93665 70.4438L-9.4668 66.0229L-3.20326 65.1125L-0.399229 59.4316Z" fill="white"/>
<path d="M44.173 59.4316L46.9771 65.1125L53.2479 66.0229L48.7105 70.4438L49.7811 76.6855L44.173 73.7358L38.5723 76.6855L39.6429 70.4438L35.1055 66.0229L41.369 65.1125L44.173 59.4316Z" fill="white"/>
<path d="M88.7545 59.4316L91.5513 65.1125L97.8221 66.0229L93.2919 70.4438L94.3553 76.6855L88.7545 73.7358L83.1465 76.6855L84.2171 70.4438L79.6797 66.0229L85.9505 65.1125L88.7545 59.4316Z" fill="white"/>
<path d="M133.327 59.4316L136.131 65.1125L142.402 66.0229L137.864 70.4438L138.928 76.6855L133.327 73.7358L127.726 76.6855L128.789 70.4438L124.252 66.0229L130.523 65.1125L133.327 59.4316Z" fill="white"/>
<path d="M-0.399229 100.312L2.39751 105.993L8.67562 106.904L4.13819 111.325L5.20154 117.566L-0.399229 114.617L-6.00728 117.566L-4.93665 111.325L-9.4668 106.904L-3.20326 105.993L-0.399229 100.312Z" fill="white"/>
<path d="M44.173 100.312L46.9771 105.993L53.2479 106.904L48.7105 111.325L49.7811 117.566L44.173 114.617L38.5723 117.566L39.6429 111.325L35.1055 106.904L41.369 105.993L44.173 100.312Z" fill="white"/>
<path d="M88.7545 100.312L91.5513 105.993L97.8221 106.904L93.2919 111.325L94.3553 117.566L88.7545 114.617L83.1465 117.566L84.2171 111.325L79.6797 106.904L85.9505 105.993L88.7545 100.312Z" fill="white"/>
<path d="M133.327 100.312L136.131 105.993L142.402 106.904L137.864 111.325L138.928 117.566L133.327 114.617L127.726 117.566L128.789 111.325L124.252 106.904L130.523 105.993L133.327 100.312Z" fill="white"/>
<path d="M-0.399229 141.192L2.39751 146.866L8.67562 147.784L4.13819 152.197L5.20154 158.446L-0.399229 155.497L-6.00728 158.446L-4.93665 152.197L-9.4668 147.784L-3.20326 146.866L-0.399229 141.192Z" fill="white"/>
<path d="M44.173 141.192L46.9771 146.866L53.2479 147.784L48.7105 152.197L49.7811 158.446L44.173 155.497L38.5723 158.446L39.6429 152.197L35.1055 147.784L41.369 146.866L44.173 141.192Z" fill="white"/>
<path d="M88.7545 141.192L91.5513 146.866L97.8221 147.784L93.2919 152.197L94.3553 158.446L88.7545 155.497L83.1465 158.446L84.2171 152.197L79.6797 147.784L85.9505 146.866L88.7545 141.192Z" fill="white"/>
<path d="M133.327 141.192L136.131 146.866L142.402 147.784L137.864 152.197L138.928 158.446L133.327 155.497L127.726 158.446L128.789 152.197L124.252 147.784L130.523 146.866L133.327 141.192Z" fill="white"/>
<path d="M-0.399229 182.066L2.39751 187.747L8.67562 188.658L4.13819 193.079L5.20154 199.32L-0.399229 196.378L-6.00728 199.32L-4.93665 193.079L-9.4668 188.658L-3.20326 187.747L-0.399229 182.066Z" fill="white"/>
<path d="M44.173 182.066L46.9771 187.747L53.2479 188.658L48.7105 193.079L49.7811 199.32L44.173 196.378L38.5723 199.32L39.6429 193.079L35.1055 188.658L41.369 187.747L44.173 182.066Z" fill="white"/>
<path d="M88.7545 182.066L91.5513 187.747L97.8221 188.658L93.2919 193.079L94.3553 199.32L88.7545 196.378L83.1465 199.32L84.2171 193.079L79.6797 188.658L85.9505 187.747L88.7545 182.066Z" fill="white"/>
<path d="M133.327 182.066L136.131 187.747L142.402 188.658L137.864 193.079L138.928 199.32L133.327 196.378L127.726 199.32L128.789 193.079L124.252 188.658L130.523 187.747L133.327 182.066Z" fill="white"/>
</g>
<mask id="mask1_2716_6242" style="mask-type:luminance" maskUnits="userSpaceOnUse" x="0" y="0" width="401" height="403">
<path d="M400.604 0.0458984H0.603516V402.406H400.604V0.0458984Z" fill="white"/>
</mask>
<g mask="url(#mask1_2716_6242)">
<mask id="mask2_2716_6242" style="mask-type:luminance" maskUnits="userSpaceOnUse" x="0" y="0" width="401" height="403">
<path d="M127.79 376.15C126.224 375.502 124.622 374.81 123.012 374.067C77.3975 353.441 41.2656 314.665 23.917 267.82L23.5018 266.64C23.1887 265.751 22.8755 264.87 22.6279 263.989C22.5186 263.581 22.3802 263.195 22.1909 262.714L22.0816 262.372C15.9273 244.186 12.6281 225.184 12.293 206.014V204.951C12.2493 203.32 12.2493 201.732 12.2493 200.101V199.183C12.2493 198.695 12.2493 198.2 12.2712 197.777L12.2857 197.566V196.146L12.3586 193.968C12.3877 193.152 12.4241 192.337 12.4387 191.623C12.5479 189.103 12.7009 186.576 12.883 184.092C12.9339 183.728 12.9776 183.335 12.9995 182.912L13.2326 180.756C13.4219 179.001 13.604 177.246 13.8589 175.505L13.9026 175.141C13.9245 174.901 13.939 174.668 13.9463 174.573L14.0264 174.129C14.3032 172.14 14.6164 170.188 14.9077 168.339L15.1699 166.875C15.5413 164.813 15.8982 162.789 16.3425 160.808C16.8814 158.346 17.4204 156.001 18.0686 153.605C18.1414 153.342 18.1997 153.066 18.3017 152.592C18.7095 151.019 19.1247 149.446 19.6636 147.676C20.0059 146.423 20.3701 145.229 20.7488 144.013L20.8726 143.605C22.6497 138.004 24.3103 133.394 26.0728 129.111C26.1821 128.871 26.2986 128.58 26.4006 128.245C26.9541 126.912 27.5076 125.601 28.1558 124.224C46.8663 81.5958 80.5438 47.6051 122.99 28.5013L123.383 28.312C124.163 27.8895 124.979 27.5326 125.831 27.1831C149.545 16.9138 174.708 11.699 200.622 11.699C273.221 11.699 338.143 52.3319 370.065 117.735C371.806 121.304 373.372 124.843 374.836 128.536L375.076 129.097C382.097 146.292 386.474 164.325 388.106 182.767C388.375 185.483 388.572 188.236 388.717 190.807L388.805 193.298C388.841 194.274 388.87 195.25 388.907 195.993L388.921 197.712C388.95 198.185 388.95 198.637 388.95 199.146V200.101C388.95 201.732 388.95 203.327 388.914 205.089V206.007C388.914 207.435 388.841 208.789 388.761 210.37C387.945 228.469 384.69 245.955 379.089 262.343L378.674 263.675C377.487 267.273 376.212 270.711 374.785 274.171C345.528 344.985 277.168 390.738 200.622 390.738C175.334 390.738 150.841 385.829 127.783 376.135M200.622 0.0458984C173.106 0.0458984 146.384 5.57384 121.264 16.4622C120.201 16.9065 119.094 17.3945 118.03 17.9625C73.0348 38.2681 37.3326 74.3344 17.5661 119.395C16.845 120.918 16.1677 122.52 15.4903 124.173L15.0534 125.237V125.309C13.2544 129.709 11.572 134.435 9.76576 140.123L9.62739 140.575C9.21224 141.915 8.81166 143.233 8.4912 144.421C7.95224 146.161 7.4934 147.909 7.07098 149.533C6.98358 149.839 6.91075 150.167 6.83792 150.538C6.13145 153.146 5.55608 155.666 4.97343 158.302C4.50002 160.429 4.114 162.607 3.71343 164.821L3.42939 166.408C3.11621 168.39 2.79575 170.371 2.51899 172.388C2.43159 172.861 2.36604 173.429 2.31506 174.041C2.06015 175.862 1.8635 177.697 1.66685 179.533L1.3027 182.949C1.09877 185.643 0.931258 188.375 0.807444 191.222L0.647213 197.173C0.610797 197.799 0.603516 198.498 0.603516 199.234V200.115C0.603516 201.841 0.603514 203.524 0.647213 205.104V206.124C1.01137 226.56 4.49273 246.698 11.0112 265.992C11.1132 266.327 11.237 266.662 11.3972 267.084C11.7249 268.257 12.1182 269.385 12.5188 270.522L12.9412 271.738C31.4114 321.621 69.7792 362.792 118.169 384.671C119.873 385.465 121.621 386.215 123.303 386.907C147.768 397.191 173.783 402.406 200.629 402.406C281.909 402.406 354.501 353.827 385.564 278.628C387.1 274.899 388.462 271.206 389.737 267.368C389.934 266.844 390.101 266.334 390.225 265.809C396.124 248.461 399.547 229.991 400.414 210.756C400.494 209.204 400.574 207.646 400.574 206.014V205.221C400.611 203.502 400.611 201.819 400.611 200.101V199.146C400.611 198.447 400.611 197.821 400.574 197.173V195.731C400.523 194.769 400.494 193.837 400.465 192.905L400.37 190.232C400.203 187.406 399.999 184.485 399.722 181.681C397.989 162.09 393.313 142.869 385.819 124.552L385.637 124.13C384.078 120.197 382.41 116.431 380.553 112.629C346.65 43.1842 277.714 0.0458984 200.622 0.0458984Z" fill="white"/>
</mask>
<g mask="url(#mask2_2716_6242)">
<path d="M400.604 0.0458984H0.603516V402.406H400.604V0.0458984Z" fill="url(#paint0_linear_2716_6242)"/>
</g>
</g>
<defs>
<linearGradient id="paint0_linear_2716_6242" x1="190.882" y1="396.457" x2="190.882" y2="-5.90265" gradientUnits="userSpaceOnUse">
<stop stop-color="white"/>
<stop offset="1" stop-color="white"/>
</linearGradient>
</defs>
</svg>
