<svg width="401" height="403" viewBox="0 0 401 403" fill="none" xmlns="http://www.w3.org/2000/svg">
<mask id="mask0_2716_6244" style="mask-type:luminance" maskUnits="userSpaceOnUse" x="5" y="4" width="392" height="394">
<path d="M396.096 199.073V200.079C396.096 201.768 396.096 203.371 395.972 205.104V206.029C395.972 207.595 395.972 209.124 395.855 210.69C395.054 229.488 391.602 247.601 385.848 264.593C385.732 265.074 385.572 265.474 385.411 265.962C384.931 267.368 384.45 268.81 383.926 270.223C383.117 272.473 382.236 274.724 381.355 276.887C352.033 347.825 282.172 397.839 200.63 397.839C173.835 397.839 148.329 392.457 125.074 382.697C123.384 381.976 121.738 381.248 120.092 380.527C72.7295 359.078 35.4177 319.224 17.2972 270.223C17.2438 270.194 17.2171 270.167 17.2171 270.143C16.7364 268.737 16.212 267.368 15.8114 265.962C15.6512 265.482 15.5346 265.081 15.3744 264.593C9.14728 246.232 5.57123 226.509 5.20707 206.029V205.104C5.12695 203.378 5.12695 201.776 5.12695 200.079V199.073C5.12695 198.513 5.12695 197.872 5.20707 197.311V195.942C5.28718 194.412 5.33089 192.846 5.41101 191.324C5.49112 188.709 5.68776 186.139 5.85527 183.611V183.247C5.93539 182.883 5.93539 182.482 5.97181 182.162C6.21215 179.591 6.4962 177.02 6.85308 174.493C6.88949 173.968 6.96961 173.488 7.057 173.123C7.29735 171.077 7.61781 169.067 7.98197 167.057C8.42625 164.369 8.90693 161.798 9.43132 159.264C9.99213 156.693 10.5966 154.202 11.2376 151.711C11.2813 151.383 11.3978 151.063 11.4415 150.83C11.8785 149.103 12.3664 147.414 12.8471 145.768C13.2841 144.282 13.692 142.833 14.129 141.434C15.0539 138.463 16.059 135.484 17.1005 132.68C17.9017 130.546 18.7101 128.383 19.5914 126.249C19.6351 126.132 19.6715 126.009 19.7516 125.885C20.3561 124.355 20.997 122.833 21.6816 121.347C41.0404 77.284 76.2764 41.7274 120.099 22.0046C121.061 21.4802 122.11 21.0432 123.071 20.6353C146.851 10.315 173.077 4.6123 200.637 4.6123C277.846 4.6123 344.72 49.4403 376.46 114.552C378.267 118.252 379.913 122.025 381.442 125.877C381.486 126.001 381.559 126.118 381.602 126.242C382.447 128.376 383.292 130.502 384.057 132.673C386.424 138.98 388.397 145.447 390.08 152.075C390.357 153.277 390.677 154.442 390.925 155.687C391.77 159.264 392.527 162.796 393.132 166.416C393.292 167.617 393.532 168.826 393.729 170.072C394.057 171.878 394.253 173.764 394.493 175.614C394.814 177.785 394.974 179.875 395.215 182.002C395.455 184.813 395.652 187.704 395.812 190.472C395.936 192.322 395.972 194.084 395.972 195.942V197.311C396.096 197.952 396.096 198.476 396.096 199.073Z" fill="white"/>
</mask>
<g mask="url(#mask0_2716_6244)">
<mask id="mask1_2716_6244" style="mask-type:luminance" maskUnits="userSpaceOnUse" x="-150" y="-4" width="701" height="409">
<path d="M550.258 -3.71289H-149.045V404.219H550.258V-3.71289Z" fill="white"/>
</mask>
<g mask="url(#mask1_2716_6244)">
<path d="M550.258 -3.71289H-149.045V132.257H550.258V-3.71289Z" fill="#F4D036"/>
<path d="M550.258 132.257H-149.045V268.249H550.258V132.257Z" fill="#32409A"/>
<path d="M550.258 268.249H-149.045V404.219H550.258V268.249Z" fill="#BA1F33"/>
<path d="M177.964 185.687L182.006 156.882L195.677 182.577L169.516 169.817L198.168 164.762L177.964 185.687Z" fill="white"/>
<path d="M205.537 182.577L219.2 156.882L223.257 185.687L203.031 164.762L231.698 169.817L205.537 182.577Z" fill="white"/>
<path d="M153.104 198.068L147.066 169.598L168.683 189.073L139.754 186.029L164.946 171.477L153.104 198.068Z" fill="white"/>
<path d="M232.529 189.073L254.153 169.598L248.094 198.068L236.266 171.477L261.465 186.029L232.529 189.073Z" fill="white"/>
<path d="M133.988 218.177L118.577 193.509L145.561 204.412L117.324 211.448L136.027 189.161L133.988 218.177Z" fill="white"/>
<path d="M255.66 204.412L282.637 193.509L267.226 218.177L265.187 189.161L283.897 211.448L255.66 204.412Z" fill="white"/>
<path d="M122.903 243.632L99.9824 225.715L129.064 226.735L104.928 243.005L114.891 215.664L122.903 243.632Z" fill="white"/>
<path d="M272.156 226.735L301.231 225.715L278.311 243.632L286.329 215.664L296.285 243.005L272.156 226.735Z" fill="white"/>
</g>
</g>
<path d="M200.629 402.398C173.783 402.398 147.775 397.184 123.303 386.9C121.621 386.201 119.873 385.45 118.169 384.664C69.7792 362.785 31.4114 321.613 12.9412 271.731L12.5188 270.514C12.1182 269.385 11.7249 268.257 11.3972 267.084C11.237 266.662 11.1132 266.319 11.0112 265.992C4.49273 246.698 1.01137 226.56 0.647213 206.116V205.097C0.603514 203.516 0.603516 201.834 0.603516 200.108V199.227C0.603516 198.491 0.603514 197.792 0.647213 197.158L0.807444 191.208C0.931258 188.375 1.09148 185.636 1.3027 182.941L1.68142 179.424C1.87807 177.625 2.06744 175.818 2.32235 174.034C2.37333 173.429 2.43888 172.861 2.519 172.395C2.78848 170.458 3.09437 168.557 3.39298 166.656L3.72072 164.813C4.11401 162.607 4.5073 160.429 4.97343 158.31C5.55608 155.673 6.13145 153.153 6.83792 150.546C6.91075 150.174 6.97631 149.868 7.05642 149.577C7.49341 147.895 7.95225 146.161 8.48392 144.428C8.7971 143.255 9.19768 141.959 9.60554 140.641L9.75848 140.131C11.5356 134.53 13.2617 129.694 15.0461 125.324V125.244L15.4904 124.173C16.1677 122.527 16.845 120.918 17.5661 119.403C37.3399 74.3417 73.0421 38.2681 118.038 17.9625C119.108 17.3945 120.208 16.9065 121.279 16.4549C146.391 5.57384 173.113 0.0458984 200.629 0.0458984C277.714 0.0458984 346.657 43.1842 380.546 112.622C382.403 116.424 384.071 120.189 385.629 124.137L385.811 124.545C393.306 142.862 397.982 162.082 399.708 181.674C399.992 184.478 400.196 187.399 400.356 190.225L400.458 192.941C400.487 193.866 400.523 194.784 400.56 195.731V197.173C400.596 197.821 400.603 198.447 400.603 199.146V200.101C400.603 201.819 400.604 203.502 400.567 205.221V206.014C400.567 207.609 400.494 209.132 400.414 210.654C399.54 229.991 396.124 248.454 390.232 265.795C390.079 266.436 389.883 266.96 389.737 267.368C388.455 271.228 387.086 274.921 385.564 278.628C354.501 353.819 281.909 402.406 200.629 402.406V402.398ZM12.9048 184.099C12.7155 186.583 12.5698 189.096 12.4605 191.623L12.3076 196.146V197.581L12.293 197.806C12.2639 198.229 12.2639 198.709 12.2639 199.197V200.115C12.2639 201.739 12.2639 203.327 12.3003 204.958V206.029C12.6426 225.206 15.9346 244.2 22.0962 262.386L22.1982 262.721C22.3875 263.209 22.5259 263.595 22.6352 263.996C22.8828 264.884 23.196 265.766 23.5091 266.654L23.9243 267.834C41.2656 314.68 77.4047 353.455 123.019 374.081C124.629 374.824 126.231 375.509 127.79 376.157C150.848 385.851 175.349 390.76 200.629 390.76C277.175 390.76 345.535 345.007 374.785 274.192C376.205 270.747 377.479 267.31 378.674 263.69L379.089 262.357C384.697 245.97 387.945 228.483 388.761 210.384L388.776 210.064C388.841 208.738 388.914 207.413 388.914 206.014V205.097C388.95 203.334 388.95 201.739 388.95 200.108V199.154C388.95 198.644 388.95 198.2 388.921 197.719L388.907 196C388.87 195.272 388.834 194.31 388.805 193.342L388.717 190.822C388.564 188.243 388.375 185.483 388.106 182.774C386.481 164.347 382.104 146.321 375.091 129.14L374.945 128.813C373.364 124.843 371.806 121.311 370.065 117.75C338.15 52.3392 273.221 11.7063 200.622 11.7063C174.708 11.7063 149.545 16.9138 125.831 27.1903C124.979 27.5472 124.163 27.8968 123.383 28.3192L122.99 28.5086C80.5438 47.6124 46.8663 81.603 28.1558 124.232C27.5149 125.593 26.9614 126.897 26.4151 128.23C26.3132 128.565 26.1966 128.856 26.0801 129.119C24.303 133.408 22.6497 138.019 20.8799 143.612L20.7342 144.086C20.3701 145.28 20.0059 146.453 19.6709 147.691C19.1319 149.453 18.7241 151.019 18.3162 152.585C18.2143 153.073 18.1487 153.342 18.0832 153.597C17.435 156.008 16.896 158.353 16.3498 160.815C15.9128 162.796 15.5559 164.821 15.1845 166.875L14.9223 168.346C14.6018 170.363 14.3032 172.228 14.041 174.136L13.9609 174.566C13.9463 174.675 13.9318 174.915 13.9099 175.17L13.8735 175.512C13.6331 177.217 13.4438 178.95 13.2617 180.669L13.0141 182.927C12.9922 183.335 12.9485 183.735 12.8975 184.107L12.9048 184.099Z" fill="url(#paint0_linear_2716_6244)"/>
<defs>
<linearGradient id="paint0_linear_2716_6244" x1="200.607" y1="402.398" x2="200.607" y2="0.0458984" gradientUnits="userSpaceOnUse">
<stop stop-color="white" stop-opacity="0.2"/>
<stop offset="0.06" stop-color="white" stop-opacity="0.0961"/>
<stop offset="0.18" stop-color="white" stop-opacity="0.2401"/>
<stop offset="0.31" stop-color="white" stop-opacity="0.4225"/>
<stop offset="0.43" stop-color="white" stop-opacity="0.6084"/>
<stop offset="0.56" stop-color="white" stop-opacity="0.7569"/>
<stop offset="0.69" stop-color="white" stop-opacity="0.8836"/>
<stop offset="0.84" stop-color="white" stop-opacity="0.9801"/>
<stop offset="1" stop-color="white"/>
</linearGradient>
</defs>
</svg>
